<?xml version="1.0" encoding="UTF-8" standalone="no"?><!DOCTYPE svg PUBLIC "-//W3C//DTD SVG 1.1//EN" "http://www.w3.org/Graphics/SVG/1.1/DTD/svg11.dtd"><svg width="100%" height="100%" viewBox="0 0 792 171" version="1.1" xmlns="http://www.w3.org/2000/svg" xmlns:xlink="http://www.w3.org/1999/xlink" xml:space="preserve" xmlns:serif="http://www.serif.com/" style="fill-rule:evenodd;clip-rule:evenodd;stroke-linejoin:round;stroke-miterlimit:1.41421;"><g id="Layer-1" serif:id="Layer 1"><path d="M168.666,24.371c0.95,0 1.79,-0.355 2.518,-1.071c0.726,-0.717 1.089,-1.561 1.089,-2.533c0,-0.974 -0.363,-1.817 -1.089,-2.533c-0.728,-0.716 -1.568,-1.074 -2.518,-1.074c-0.951,0 -1.775,0.358 -2.474,1.074c-0.699,0.716 -1.048,1.559 -1.048,2.533c0,0.972 0.349,1.816 1.048,2.533c0.699,0.716 1.523,1.071 2.474,1.071" style="fill-rule:nonzero;"/><path d="M713.102,41.345c0.085,-0.566 0.268,-1.132 0.55,-1.699c0.51,-0.903 1.298,-1.604 2.376,-2.1c1.073,-0.494 2.233,-0.877 3.478,-1.14c1.245,-0.267 2.501,-0.428 3.778,-0.489c1.273,-0.058 2.336,-0.09 3.181,-0.09l2.631,0c1.131,0 2.304,0.06 3.52,0.178c1.215,0.119 2.35,0.311 3.397,0.578c1.047,0.263 1.795,0.691 2.248,1.282c-1.643,0.622 -3.282,1.188 -4.924,1.698c-1.636,0.507 -3.282,0.99 -4.919,1.44c-2.547,0.794 -5.08,1.528 -7.594,2.207c-2.522,0.679 -5.049,1.359 -7.599,2.038c-0.168,-0.679 -0.253,-1.386 -0.253,-2.123c0,-0.621 0.041,-1.215 0.13,-1.78m-117.908,3.573c-0.06,0.599 -0.253,1.182 -0.592,1.751c-0.513,0.85 -1.305,1.538 -2.381,2.048c-1.073,0.512 -2.235,0.879 -3.476,1.109c-1.246,0.231 -2.491,0.371 -3.736,0.426c-1.245,0.058 -2.29,0.086 -3.139,0.086c-0.905,0 -1.991,-0.028 -3.267,-0.086c-1.272,-0.055 -2.559,-0.211 -3.863,-0.469c-1.301,-0.257 -2.489,-0.667 -3.56,-1.237c-1.076,-0.566 -1.84,-1.339 -2.293,-2.305c-0.228,-0.511 -0.369,-1.022 -0.422,-1.536c-0.059,-0.511 -0.086,-1.051 -0.086,-1.622c0,-0.568 0.027,-1.11 0.086,-1.622c0.053,-0.51 0.194,-1.024 0.422,-1.535c0.453,-0.966 1.217,-1.735 2.293,-2.305c1.071,-0.568 2.259,-0.982 3.56,-1.237c1.304,-0.255 2.591,-0.412 3.863,-0.469c1.276,-0.058 2.362,-0.088 3.267,-0.088c0.849,0 1.894,0.03 3.139,0.088c1.245,0.057 2.49,0.199 3.736,0.426c1.241,0.228 2.403,0.597 3.476,1.109c1.076,0.512 1.868,1.195 2.381,2.049c0.339,0.57 0.532,1.153 0.592,1.748c0.054,0.599 0.081,1.21 0.081,1.836c0,0.627 -0.027,1.24 -0.081,1.835m-70.982,0c-0.088,0.599 -0.294,1.182 -0.637,1.751c-0.506,0.85 -1.3,1.538 -2.374,2.048c-1.076,0.512 -2.238,0.879 -3.478,1.109c-1.246,0.231 -2.491,0.371 -3.736,0.426c-1.245,0.058 -2.29,0.086 -3.14,0.086c-0.904,0 -1.991,-0.028 -3.266,-0.086c-1.272,-0.055 -2.544,-0.211 -3.818,-0.469c-1.273,-0.257 -2.448,-0.667 -3.522,-1.237c-1.074,-0.566 -1.839,-1.339 -2.292,-2.305c-0.225,-0.511 -0.368,-1.022 -0.425,-1.536c-0.055,-0.511 -0.081,-1.051 -0.081,-1.622c0,-0.568 0.026,-1.11 0.081,-1.622c0.057,-0.51 0.2,-1.024 0.425,-1.535c0.453,-0.966 1.218,-1.735 2.292,-2.305c1.074,-0.568 2.249,-0.982 3.522,-1.237c1.274,-0.255 2.546,-0.412 3.818,-0.469c1.275,-0.058 2.362,-0.088 3.266,-0.088c0.85,0 1.895,0.03 3.14,0.088c1.245,0.057 2.49,0.199 3.736,0.426c1.24,0.228 2.402,0.597 3.478,1.109c1.074,0.512 1.868,1.195 2.374,2.049c0.343,0.57 0.549,1.153 0.637,1.748c0.086,0.599 0.128,1.21 0.128,1.836c0,0.627 -0.042,1.24 -0.128,1.835m-203.27,0c-0.056,0.599 -0.253,1.182 -0.593,1.751c-0.509,0.85 -1.302,1.538 -2.377,2.048c-1.076,0.512 -2.236,0.879 -3.478,1.109c-1.246,0.231 -2.49,0.371 -3.734,0.426c-1.246,0.058 -2.292,0.086 -3.139,0.086c-0.908,0 -1.995,-0.028 -3.269,-0.086c-1.271,-0.055 -2.559,-0.211 -3.86,-0.469c-0.861,-0.17 -1.654,-0.433 -2.415,-0.739c-0.147,-0.373 -0.368,-0.722 -0.684,-1.041c-0.594,-0.593 -1.289,-0.889 -2.08,-0.889c-0.017,0 -0.041,0.008 -0.059,0.008c-0.224,-0.281 -0.464,-0.554 -0.617,-0.881c-0.226,-0.511 -0.368,-1.022 -0.424,-1.536c-0.057,-0.511 -0.085,-1.051 -0.085,-1.622c0,-0.568 0.028,-1.11 0.085,-1.622c0.056,-0.51 0.198,-1.024 0.424,-1.535c0.452,-0.966 1.215,-1.735 2.291,-2.305c1.073,-0.568 2.262,-0.982 3.564,-1.237c1.301,-0.255 2.589,-0.412 3.86,-0.469c1.274,-0.058 2.361,-0.088 3.269,-0.088c0.847,0 1.893,0.03 3.139,0.088c1.244,0.057 2.488,0.199 3.734,0.426c1.242,0.228 2.402,0.597 3.478,1.109c1.075,0.512 1.868,1.195 2.377,2.049c0.34,0.57 0.537,1.153 0.593,1.748c0.057,0.599 0.084,1.21 0.084,1.836c0,0.627 -0.027,1.24 -0.084,1.835m-239.209,3.726c-0.28,0.393 -0.691,0.706 -1.228,0.932c-0.539,0.227 -1.104,0.394 -1.699,0.507c-0.593,0.114 -1.187,0.184 -1.78,0.212c-0.592,0.03 -1.091,0.043 -1.487,0.043l-31.48,0c-2.206,0 -3.933,-0.762 -5.174,-2.292c-1.247,-1.525 -2.182,-3.35 -2.803,-5.472c-0.623,-2.121 -1.003,-4.34 -1.145,-6.661c-0.141,-2.318 -0.213,-4.242 -0.213,-5.771c0,-1.299 0.029,-2.614 0.086,-3.943c0.057,-1.332 0.14,-2.645 0.253,-3.946l48.198,0l0,25.14c-0.058,0.023 -0.106,0.034 -0.167,0.06c-0.512,0.227 -0.965,0.624 -1.361,1.191m698.233,-0.641c-0.594,-0.593 -1.287,-0.889 -2.081,-0.889c-0.335,0 -0.762,0.117 -1.272,0.339c-0.506,0.227 -0.959,0.624 -1.355,1.191c-0.284,0.393 -0.693,0.706 -1.232,0.932c-0.539,0.227 -1.1,0.394 -1.695,0.507c-0.598,0.114 -1.19,0.184 -1.784,0.212c-0.591,0.03 -1.089,0.043 -1.482,0.043l-42.6,0c-1.19,0 -2.377,-0.043 -3.564,-0.126c-1.186,-0.086 -2.35,-0.242 -3.481,-0.468c3.168,-0.851 6.312,-1.709 9.423,-2.587c3.109,-0.876 6.194,-1.852 9.251,-2.928c0.562,-0.169 1.228,-0.383 1.989,-0.636c0.766,-0.254 1.5,-0.58 2.205,-0.977c0.709,-0.396 1.304,-0.848 1.786,-1.357c0.48,-0.509 0.721,-1.159 0.721,-1.951c0,-2.378 -0.637,-4.2 -1.909,-5.475c-1.271,-1.273 -2.846,-2.206 -4.713,-2.799c-1.865,-0.595 -3.858,-0.935 -5.981,-1.018c-2.119,-0.084 -4.028,-0.127 -5.727,-0.127c-2.319,0 -4.625,0.156 -6.918,0.467c-2.29,0.312 -4.369,0.932 -6.234,1.867c-1.866,0.934 -3.382,2.262 -4.541,3.987c-1.157,1.727 -1.74,4.031 -1.74,6.915c0,2.658 0.516,4.8 1.5,6.473c-0.517,0.212 -1.058,0.377 -1.625,0.485c-0.595,0.114 -1.191,0.184 -1.783,0.212c-0.594,0.03 -1.091,0.043 -1.485,0.043l-43.444,0c-0.852,0 -1.914,-0.028 -3.182,-0.086c-1.276,-0.055 -2.534,-0.211 -3.779,-0.469c-1.246,-0.257 -2.407,-0.64 -3.477,-1.151c-1.078,-0.511 -1.865,-1.222 -2.378,-2.135c-0.284,-0.511 -0.465,-1.052 -0.55,-1.622c-0.085,-0.568 -0.129,-1.165 -0.129,-1.792c0,-0.626 0.044,-1.223 0.129,-1.793c0.085,-0.568 0.266,-1.109 0.55,-1.619c0.513,-0.91 1.3,-1.623 2.378,-2.136c1.07,-0.511 2.231,-0.896 3.477,-1.151c1.245,-0.255 2.503,-0.412 3.779,-0.469c1.268,-0.058 2.33,-0.088 3.182,-0.088c0.62,0 1.61,-0.011 2.966,-0.043c1.361,-0.027 2.732,0.045 4.118,0.217c1.385,0.172 2.598,0.501 3.647,0.99c1.047,0.487 1.572,1.245 1.572,2.277c0,0.802 0.288,1.505 0.875,2.105c0.587,0.604 1.271,0.905 2.05,0.905c0.782,0 1.479,-0.299 2.092,-0.89c0.614,-0.595 0.922,-1.288 0.922,-2.08c0,-2.378 -0.638,-4.2 -1.905,-5.475c-1.272,-1.273 -2.838,-2.206 -4.7,-2.799c-1.865,-0.595 -3.851,-0.935 -5.97,-1.018c-2.116,-0.084 -4.022,-0.127 -5.716,-0.127c-2.31,0 -4.609,0.156 -6.895,0.467c-2.288,0.312 -4.361,0.932 -6.226,1.867c-1.861,0.934 -3.373,2.262 -4.527,3.987c-1.163,1.727 -1.739,4.031 -1.739,6.915c0,2.658 0.517,4.8 1.5,6.472c-0.518,0.214 -1.055,0.378 -1.623,0.486c-0.598,0.114 -1.192,0.184 -1.787,0.212c-0.592,0.03 -1.087,0.043 -1.482,0.043l-27.58,0c-1.697,0 -3.052,-0.551 -4.075,-1.656c-1.014,-1.1 -1.796,-2.459 -2.33,-4.07c-0.539,-1.615 -0.893,-3.282 -1.062,-5.008c-0.172,-1.725 -0.251,-3.238 -0.251,-4.539c0,-0.622 0.026,-1.26 0.079,-1.908c0.059,-0.651 0.088,-1.288 0.088,-1.911c0,-0.792 -0.297,-1.485 -0.891,-2.08c-0.597,-0.592 -1.287,-0.889 -2.079,-0.889c-0.678,0 -1.232,0.14 -1.652,0.42c-0.425,0.28 -0.738,0.63 -0.938,1.051c-0.198,0.419 -0.339,0.911 -0.425,1.47c-0.083,0.562 -0.125,1.095 -0.125,1.598c-2.037,-1.225 -4.344,-2.022 -6.915,-2.385c-2.574,-0.362 -5.02,-0.542 -7.341,-0.542c-2.319,0 -4.622,0.156 -6.914,0.467c-2.293,0.312 -4.373,0.932 -6.238,1.867c-1.868,0.934 -3.382,2.262 -4.541,3.987c-1.157,1.727 -1.74,4.031 -1.74,6.915c0,2.658 0.519,4.8 1.5,6.473c-0.517,0.213 -1.054,0.378 -1.623,0.485c-0.595,0.114 -1.189,0.184 -1.782,0.212c-0.594,0.03 -1.089,0.043 -1.486,0.043l-30.719,0c0.737,-1.074 1.245,-2.217 1.529,-3.436c0.284,-1.215 0.425,-2.474 0.425,-3.777c0,-2.884 -0.581,-5.188 -1.741,-6.915c-1.159,-1.725 -2.67,-3.053 -4.541,-3.987c-1.866,-0.935 -3.958,-1.555 -6.276,-1.867c-2.324,-0.311 -4.611,-0.467 -6.876,-0.467c-2.264,0 -4.622,0.152 -7.084,0.459c-2.462,0.308 -4.682,1.018 -6.659,2.135c0,-0.894 -0.256,-1.65 -0.764,-2.266c-0.512,-0.615 -1.248,-0.922 -2.211,-0.922c-0.792,0 -1.483,0.295 -2.077,0.89c-0.594,0.594 -0.888,1.288 -0.888,2.079l0,15.134c-0.055,0.021 -0.099,0.031 -0.155,0.055c-0.511,0.227 -0.964,0.624 -1.359,1.191c-0.281,0.393 -0.691,0.706 -1.23,0.932c-0.537,0.227 -1.102,0.394 -1.696,0.507c-0.595,0.114 -1.188,0.184 -1.782,0.212c-0.594,0.03 -1.092,0.043 -1.487,0.043l-33.347,0c0.446,-0.789 0.755,-1.597 0.922,-2.421c0.167,-0.815 0.251,-1.653 0.251,-2.501c0,-1.696 -0.462,-3.279 -1.382,-4.751c-0.92,-1.471 -2.066,-2.8 -3.437,-3.989c-1.373,-1.185 -2.878,-2.233 -4.518,-3.139c-1.642,-0.904 -3.138,-1.668 -4.497,-2.291c0.281,-0.452 0.581,-0.905 0.893,-1.357c0.308,-0.453 0.466,-0.99 0.466,-1.612c0,-0.792 -0.299,-1.488 -0.893,-2.078c-0.594,-0.596 -1.285,-0.893 -2.079,-0.893c-1.133,0 -1.98,0.454 -2.545,1.357l-14.34,21.809c-0.225,0.34 -0.625,0.636 -1.189,0.89c-0.567,0.257 -1.175,0.453 -1.823,0.593c-0.649,0.144 -1.287,0.242 -1.912,0.297c-0.62,0.058 -1.103,0.086 -1.442,0.086c-0.074,0 -0.138,0.036 -0.21,0.041c-0.073,-0.005 -0.137,-0.041 -0.211,-0.041l-75.607,0c-2.205,0 -3.931,-0.762 -5.174,-2.292c-1.247,-1.525 -2.18,-3.35 -2.8,-5.472c-0.625,-2.121 -1.007,-4.34 -1.147,-6.661c-0.142,-2.318 -0.214,-4.242 -0.214,-5.771c0,-3.11 0.158,-6.207 0.467,-9.291c0.311,-3.082 0.749,-6.151 1.317,-9.206c0,-0.113 0.014,-0.199 0.041,-0.255c0.03,-0.057 0.043,-0.141 0.043,-0.256c0,-0.79 -0.313,-1.497 -0.933,-2.119c-0.622,-0.623 -1.324,-0.935 -2.105,-0.935c-0.781,0 -1.396,0.226 -1.841,0.679c-0.444,0.455 -0.781,1.048 -1.003,1.782c-0.279,0.792 -0.458,1.655 -0.544,2.588c-0.084,0.934 -0.182,1.824 -0.293,2.673c-0.333,2.375 -0.598,4.739 -0.794,7.084c-0.197,2.35 -0.291,4.712 -0.291,7.087c0,0.446 0.009,0.864 0.041,1.255c0.027,0.39 0.041,0.807 0.041,1.255c-1.979,-1.117 -4.198,-1.827 -6.661,-2.135c-2.461,-0.307 -4.825,-0.459 -7.084,-0.459c-2.321,0 -4.626,0.156 -6.917,0.467c-2.29,0.312 -4.37,0.932 -6.235,1.867c-1.869,0.934 -3.384,2.262 -4.541,3.987c-1.159,1.727 -1.739,4.031 -1.739,6.915c0,2.883 0.576,5.185 1.731,6.91c-0.057,0.011 -0.107,0.038 -0.164,0.048c-0.595,0.114 -1.187,0.184 -1.779,0.212c-0.596,0.03 -1.094,0.043 -1.488,0.043l-21.721,0c-2.377,0 -4.415,-0.368 -6.111,-1.101c-1.697,-0.734 -3.097,-1.784 -4.2,-3.142c-1.102,-1.356 -1.911,-2.97 -2.418,-4.836c-0.509,-1.866 -0.767,-3.903 -0.767,-6.108c0,-0.396 0.032,-0.777 0.086,-1.148c0.056,-0.367 0.086,-0.75 0.086,-1.146c0,-0.79 -0.312,-1.483 -0.932,-2.078c-0.623,-0.594 -1.331,-0.89 -2.122,-0.89l-22.486,0c-0.792,0 -1.488,0.296 -2.08,0.89c-0.596,0.595 -0.89,1.288 -0.89,2.078c0,1.698 -0.116,3.566 -0.343,5.601c-0.226,2.037 -0.706,3.933 -1.442,5.685c-0.735,1.755 -1.767,3.224 -3.095,4.415c-0.985,0.878 -2.226,1.427 -3.722,1.655c-0.064,0.007 -0.128,0.017 -0.193,0.023c-0.426,0.056 -0.871,0.087 -1.337,0.092c-0.239,0.006 -0.456,0.01 -0.648,0.01l-27.152,0c-2.433,0 -4.497,-0.481 -6.194,-1.445c-1.696,-0.96 -3.07,-2.233 -4.116,-3.815c-1.047,-1.583 -1.813,-3.394 -2.292,-5.432c-0.479,-2.034 -0.721,-4.129 -0.721,-6.278c0,-0.905 -0.223,-1.711 -0.67,-2.419c-0.447,-0.707 -1.2,-1.06 -2.255,-1.06c-1.063,0 -1.827,0.339 -2.306,1.018c-0.472,0.677 -0.708,1.499 -0.708,2.461c0,1.697 -0.127,3.535 -0.382,5.514c-0.254,1.982 -0.734,3.819 -1.442,5.517c-0.708,1.696 -1.739,3.113 -3.096,4.245c-1.002,0.833 -2.235,1.352 -3.696,1.572c-0.078,0.007 -0.155,0.021 -0.232,0.027c-0.409,0.051 -0.834,0.081 -1.277,0.085c-0.24,0.006 -0.459,0.01 -0.65,0.01l-30.802,0c-0.848,0 -1.556,-0.195 -2.121,-0.594c-0.568,-0.394 -0.991,-0.917 -1.273,-1.569c-0.285,-0.648 -0.481,-1.358 -0.595,-2.121c-0.113,-0.766 -0.169,-1.485 -0.169,-2.165l0,-0.764c0,-2.772 -0.509,-5.02 -1.525,-6.746c-1.014,-1.724 -2.387,-3.067 -4.107,-4.029c-1.72,-0.963 -3.68,-1.614 -5.881,-1.951c-2.202,-0.341 -4.489,-0.51 -6.858,-0.51c-2.032,0 -4.162,0.141 -6.391,0.417c-2.233,0.279 -4.249,0.894 -6.055,1.843l0.007,-9.896l3.571,0c0.793,0 1.487,-0.307 2.079,-0.922c0.592,-0.613 0.892,-1.309 0.892,-2.092c0,-0.779 -0.3,-1.461 -0.892,-2.049c-0.592,-0.586 -1.286,-0.879 -2.079,-0.879l-3.567,0l0.004,-5.181c0,-0.791 -0.3,-1.497 -0.893,-2.117c-0.592,-0.621 -1.286,-0.933 -2.078,-0.933c-0.794,0 -1.485,0.312 -2.079,0.935c-0.594,0.622 -0.892,1.329 -0.892,2.119l0,5.177l-47.516,0c0.11,-0.685 0.267,-1.557 0.466,-2.614c0.197,-1.059 0.297,-1.901 0.297,-2.529c0,-0.801 -0.297,-1.515 -0.888,-2.143c-0.596,-0.629 -1.283,-0.945 -2.061,-0.945c-0.781,0 -1.425,0.23 -1.922,0.686c-0.506,0.459 -0.838,1.057 -1.006,1.8c-0.224,0.973 -0.392,1.93 -0.504,2.874c-0.11,0.943 -0.222,1.901 -0.333,2.871l-16.794,0c-0.79,0 -1.483,0.293 -2.078,0.879c-0.593,0.588 -0.89,1.27 -0.89,2.049c0,0.783 0.297,1.479 0.89,2.092c0.595,0.615 1.288,0.922 2.078,0.922l16.124,0c-0.113,1.301 -0.199,2.585 -0.255,3.86c-0.057,1.273 -0.083,2.56 -0.083,3.86c0,2.546 0.167,5.347 0.5,8.402c0.337,3.053 1.046,5.91 2.134,8.567c1.087,2.662 2.633,4.883 4.631,6.663c2,1.783 4.668,2.673 8.008,2.673l31.48,0c1.812,0 3.623,-0.226 5.432,-0.679c0.935,-0.234 1.806,-0.577 2.62,-1.022c0.146,0.285 0.313,0.562 0.562,0.811c0.594,0.594 1.285,0.89 2.079,0.89c0.792,0 1.486,-0.296 2.078,-0.893c0.593,-0.598 0.893,-1.293 0.893,-2.089l0,-10.224c0,-0.625 0.027,-1.222 0.086,-1.79c0.054,-0.567 0.224,-1.137 0.509,-1.706c0.451,-0.906 1.157,-1.617 2.119,-2.128c0.962,-0.512 2.023,-0.88 3.181,-1.107c1.161,-0.227 2.336,-0.369 3.523,-0.426c1.188,-0.058 2.207,-0.088 3.056,-0.088c0.849,0 1.852,0.03 3.011,0.088c1.159,0.057 2.306,0.199 3.438,0.426c1.131,0.227 2.193,0.582 3.182,1.064c0.99,0.482 1.709,1.151 2.165,2.002c0.28,0.511 0.466,1.051 0.55,1.62c0.083,0.568 0.126,1.137 0.126,1.704c0,0.169 -0.013,0.368 -0.043,0.596c-0.028,0.229 -0.041,0.426 -0.041,0.595c0,1.591 0.196,3.125 0.585,4.605c0.389,1.475 0.991,2.794 1.801,3.961c0.806,1.163 1.842,2.088 3.105,2.768c1.26,0.679 2.794,1.022 4.607,1.022l30.802,0c0.129,0 0.257,-0.022 0.385,-0.024c0.043,0.002 0.078,0.024 0.121,0.024c1.642,0 3.159,-0.207 4.557,-0.61c0.123,-0.028 0.245,-0.038 0.369,-0.069c1.808,-0.453 3.393,-1.3 4.752,-2.546c0.226,-0.171 0.466,-0.396 0.719,-0.678c0.256,-0.28 0.438,-0.566 0.552,-0.85c0.006,-0.01 0.007,-0.021 0.012,-0.031c1.037,-1.203 1.933,-2.591 2.653,-4.209c1.674,3.053 3.867,5.316 6.582,6.789c2.715,1.47 5.826,2.204 9.335,2.204l27.152,0c0.13,0 0.259,-0.022 0.389,-0.024c0.041,0.002 0.078,0.024 0.121,0.024c1.631,0 3.105,-0.211 4.456,-0.591c0.155,-0.036 0.311,-0.05 0.466,-0.088c1.811,-0.453 3.396,-1.3 4.752,-2.546c0.226,-0.171 0.467,-0.396 0.722,-0.678c0.254,-0.28 0.437,-0.566 0.552,-0.85c0.009,-0.018 0.011,-0.036 0.02,-0.053c0.462,-0.526 0.901,-1.074 1.294,-1.669c1.275,-1.933 2.208,-4.117 2.802,-6.562c0.591,-2.441 0.977,-4.912 1.144,-7.414l16.464,0c0.055,3.07 0.509,5.851 1.356,8.351c0.849,2.502 2.095,4.645 3.734,6.433c1.641,1.792 3.649,3.185 6.024,4.176c2.377,0.996 5.149,1.491 8.318,1.491l21.721,0c1.808,0 3.62,-0.226 5.431,-0.679c1.136,-0.284 2.171,-0.741 3.128,-1.337c1.714,0.78 3.576,1.338 5.635,1.595c2.289,0.281 4.591,0.421 6.907,0.421c1.526,0 3.149,-0.07 4.873,-0.21c1.721,-0.141 3.387,-0.426 4.997,-0.852c1.611,-0.421 3.106,-1.061 4.491,-1.908c1.381,-0.847 2.498,-2.007 3.345,-3.478c1.285,2.093 2.873,3.692 4.767,4.793c1.896,1.105 4.061,1.655 6.492,1.655l28.939,0c0.02,0 0.041,-0.003 0.062,-0.003c0.007,0 0.012,0.003 0.019,0.003l46.587,0c0.072,0 0.135,-0.037 0.209,-0.043c0.074,0.006 0.135,0.043 0.212,0.043c1.019,0 2.067,-0.07 3.14,-0.21c1.076,-0.141 2.123,-0.383 3.142,-0.723c1.016,-0.339 1.963,-0.808 2.842,-1.4c0.875,-0.594 1.624,-1.344 2.249,-2.249l10.098,-15.36c0.735,0.285 1.725,0.752 2.97,1.402c1.245,0.65 2.486,1.386 3.736,2.206c1.24,0.821 2.315,1.714 3.221,2.672c0.906,0.963 1.357,1.896 1.357,2.8c0,1.642 -0.581,2.814 -1.738,3.525c-1.161,0.706 -2.418,1.17 -3.777,1.397c-0.792,0.116 -1.442,0.441 -1.95,0.975c-0.51,0.539 -0.765,1.203 -0.765,1.995c0,0.847 0.284,1.558 0.849,2.12c0.563,0.569 1.272,0.85 2.121,0.85l43.377,0c1.812,0 3.621,-0.226 5.431,-0.679c0.808,-0.201 1.56,-0.494 2.278,-0.853l0,107.73c0,0.788 0.294,1.483 0.888,2.077c0.594,0.596 1.285,0.893 2.077,0.893c0.796,0 1.488,-0.297 2.081,-0.893c0.594,-0.594 0.894,-1.289 0.894,-2.077l0,-108.828c1.918,1.076 4.069,1.78 6.445,2.123c2.377,0.335 4.641,0.507 6.79,0.507l48.707,0c1.811,0 3.619,-0.226 5.432,-0.679c1.417,-0.355 2.693,-0.962 3.835,-1.804c0.139,0.076 0.262,0.165 0.405,0.236c1.865,0.932 3.945,1.541 6.238,1.826c2.292,0.281 4.595,0.421 6.914,0.421c1.472,0 3.041,-0.054 4.711,-0.172c1.667,-0.109 3.294,-0.378 4.876,-0.804c1.587,-0.421 3.07,-1.029 4.46,-1.826c1.384,-0.789 2.528,-1.865 3.432,-3.224c2.379,4.021 5.857,6.026 10.438,6.026l27.58,0c1.808,0 3.619,-0.226 5.429,-0.679c1.417,-0.355 2.696,-0.962 3.837,-1.804c0.137,0.075 0.264,0.165 0.405,0.236c1.868,0.932 3.947,1.541 6.24,1.826c2.29,0.281 4.597,0.421 6.917,0.421l43.444,0c1.807,0 3.619,-0.226 5.43,-0.679c1.419,-0.355 2.695,-0.962 3.837,-1.804c0.138,0.076 0.263,0.165 0.407,0.236c1.865,0.932 3.944,1.541 6.234,1.826c2.293,0.281 4.599,0.421 6.918,0.421l42.6,0c1.806,0 3.619,-0.226 5.43,-0.679c1.805,-0.453 3.39,-1.3 4.753,-2.546c0.223,-0.171 0.465,-0.396 0.718,-0.678c0.26,-0.28 0.438,-0.566 0.55,-0.85c0.227,-0.45 0.339,-0.93 0.339,-1.442c0,-0.792 -0.295,-1.482 -0.889,-2.08" style="fill-rule:nonzero;"/><path d="M97.328,105.251c-5.41,-6.6 -12.09,-9.901 -20.042,-9.901c-3.5,0 -6.739,0.636 -9.723,1.908c-2.982,1.273 -5.546,3.003 -7.693,5.189c-2.147,2.189 -3.838,4.793 -5.07,7.815c-1.235,3.023 -1.849,6.283 -1.849,9.781c0,3.58 0.614,6.88 1.849,9.903c1.232,3.023 2.94,5.645 5.129,7.871c2.186,2.229 4.751,3.978 7.695,5.25c2.941,1.274 6.122,1.91 9.542,1.91c7.475,0 14.198,-3.182 20.162,-9.544l0,27.676l-2.386,0.836c-3.578,1.27 -6.919,2.205 -10.021,2.803c-3.101,0.594 -6.164,0.894 -9.186,0.894c-6.202,0 -12.149,-1.175 -17.834,-3.52c-5.688,-2.344 -10.697,-5.646 -15.031,-9.901c-4.335,-4.255 -7.814,-9.306 -10.438,-15.15c-2.625,-5.845 -3.937,-12.227 -3.937,-19.147c0,-6.919 1.291,-13.26 3.877,-19.028c2.583,-5.765 6.042,-10.736 10.378,-14.911c4.334,-4.175 9.366,-7.436 15.091,-9.783c5.726,-2.345 11.73,-3.518 18.013,-3.518c3.58,0 7.099,0.378 10.558,1.132c3.46,0.757 7.099,1.93 10.916,3.519l0,27.916Z" style="fill-rule:nonzero;"/><path d="M133.831,120.164c0,3.577 0.674,6.877 2.027,9.9c1.352,3.023 3.181,5.648 5.488,7.872c2.306,2.229 4.99,3.96 8.052,5.192c3.061,1.232 6.303,1.849 9.723,1.849c3.418,0 6.66,-0.617 9.723,-1.849c3.06,-1.232 5.765,-2.963 8.112,-5.192c2.345,-2.224 4.194,-4.849 5.547,-7.872c1.351,-3.023 2.029,-6.323 2.029,-9.9c0,-3.582 -0.678,-6.879 -2.029,-9.902c-1.353,-3.022 -3.202,-5.647 -5.547,-7.874c-2.347,-2.226 -5.052,-3.956 -8.112,-5.189c-3.063,-1.232 -6.305,-1.849 -9.723,-1.849c-3.42,0 -6.662,0.617 -9.723,1.849c-3.062,1.233 -5.746,2.963 -8.052,5.189c-2.307,2.227 -4.136,4.852 -5.488,7.874c-1.353,3.023 -2.027,6.32 -2.027,9.902m-24.456,0c0,-6.682 1.232,-12.904 3.698,-18.671c2.465,-5.765 5.884,-10.797 10.259,-15.091c4.374,-4.295 9.603,-7.653 15.688,-10.081c6.084,-2.425 12.783,-3.637 20.101,-3.637c7.236,0 13.916,1.212 20.041,3.637c6.124,2.428 11.393,5.786 15.808,10.081c4.413,4.294 7.852,9.326 10.318,15.091c2.464,5.767 3.698,11.989 3.698,18.671c0,6.68 -1.234,12.901 -3.698,18.667c-2.466,5.767 -5.905,10.796 -10.318,15.091c-4.415,4.294 -9.684,7.656 -15.808,10.081c-6.125,2.424 -12.805,3.639 -20.041,3.639c-7.318,0 -14.017,-1.215 -20.101,-3.639c-6.085,-2.425 -11.314,-5.787 -15.688,-10.081c-4.375,-4.295 -7.794,-9.324 -10.259,-15.091c-2.466,-5.766 -3.698,-11.987 -3.698,-18.667" style="fill-rule:nonzero;"/><path d="M275.311,94.991l-28.153,0l0,15.031l25.649,0l0,19.804l-25.649,0l0,35.311l-23.382,0l0,-89.949l51.535,0l0,19.803Z" style="fill-rule:nonzero;"/><path d="M340.804,94.991l-28.153,0l0,15.031l25.649,0l0,19.804l-25.649,0l0,35.311l-23.382,0l0,-89.949l51.535,0l0,19.803Z" style="fill-rule:nonzero;"/><path d="M405.939,94.991l-27.796,0l0,15.031l26.244,0l0,19.804l-26.244,0l0,15.507l27.796,0l0,19.804l-51.178,0l0,-89.949l51.178,0l0,19.803Z" style="fill-rule:nonzero;"/><path d="M473.936,94.991l-27.796,0l0,15.031l26.245,0l0,19.804l-26.245,0l0,15.507l27.796,0l0,19.804l-51.178,0l0,-89.949l51.178,0l0,19.803Z" style="fill-rule:nonzero;"/></g></svg>