<?xml version="1.0" encoding="UTF-8" standalone="no"?><!DOCTYPE svg PUBLIC "-//W3C//DTD SVG 1.1//EN" "http://www.w3.org/Graphics/SVG/1.1/DTD/svg11.dtd"><svg width="100%" height="100%" viewBox="0 0 289 209" version="1.1" xmlns="http://www.w3.org/2000/svg" xmlns:xlink="http://www.w3.org/1999/xlink" xml:space="preserve" xmlns:serif="http://www.serif.com/" style="fill-rule:evenodd;clip-rule:evenodd;stroke-linejoin:round;stroke-miterlimit:1.41421;"><path d="M189.268,200.714c-0.358,-0.657 -0.66,-1.212 -0.962,-1.769c-0.46,0.993 -0.516,1.756 0.962,1.769m-98.503,-109.047c0.123,-0.026 0.246,-0.052 0.369,-0.078c0.048,-0.412 0.222,-0.872 0.094,-1.221c-0.076,-0.209 -0.624,-0.246 -0.96,-0.36c-0.097,0.105 -0.193,0.211 -0.29,0.317c0.262,0.447 0.525,0.895 0.787,1.342m101.559,108.855c0.111,-0.026 0.219,-0.051 0.33,-0.075c-0.034,-0.389 -0.067,-0.778 -0.101,-1.167c-0.56,0.347 -1.254,-0.9 -1.713,-0.057c0.546,0.477 1.016,0.888 1.484,1.299m-102.534,-112.779c-0.138,0.555 -0.281,1.128 -0.474,1.899c1.625,-1.147 1.473,-2.103 -0.363,-3.002c0.291,0.383 0.582,0.767 0.837,1.103m5.445,41.234l-0.328,-0.26c0.373,-0.069 0.745,-0.138 1.118,-0.206c-0.013,-0.089 -0.026,-0.178 -0.04,-0.268c-0.884,0.064 -1.768,0.128 -2.652,0.192c-0.035,0.12 -0.069,0.239 -0.103,0.358c2.202,-0.672 1.057,1.288 1.836,2.147c0.072,-0.835 0.121,-1.399 0.169,-1.963m112.226,72.537c-0.346,-0.089 -0.573,-0.149 -0.86,-0.223l0,1.086c0.566,-0.316 1.38,-0.573 1.371,-0.804c-0.017,-0.547 -0.423,-1.083 -0.673,-1.623c-0.203,0.192 -0.407,0.385 -0.609,0.577c1.186,-0.224 0.66,0.526 0.771,0.987m-19.728,-0.164c-0.894,-0.73 -1.739,-1.42 -2.768,-2.261c0.309,0.563 0.49,0.895 0.66,1.205c-0.397,0.313 -0.72,0.57 -1.044,0.826c0.058,0.093 0.116,0.186 0.174,0.279c0.44,-0.217 0.879,-0.434 1.302,-0.642c0.321,0.925 1.057,0.662 1.676,0.593m9.632,-5.787c-0.124,0.759 -0.235,1.244 -0.271,1.734c-0.018,0.227 0.035,0.556 0.186,0.669c0.141,0.108 0.45,-0.005 0.687,-0.021c-0.018,-0.216 -0.025,-0.435 -0.058,-0.648c-0.018,-0.112 -0.083,-0.216 -0.236,-0.595c0.609,0.154 0.977,0.247 1.464,0.37c-0.064,-0.411 -0.125,-0.797 -0.186,-1.184c-0.28,0.173 -0.56,0.345 -0.879,0.542c-0.21,-0.258 -0.488,-0.598 -0.707,-0.867m-109.855,-71.865c-0.218,1.316 2.048,1.132 0.874,2.716c0.512,0 1.106,0.024 1.109,-0.004c0.054,-0.611 0.043,-1.228 0.045,-1.844c-0.279,0.054 -0.557,0.107 -0.597,0.115c-0.517,-0.356 -0.923,-0.634 -1.431,-0.983m96.462,79.686c0.968,-0.3 1.99,-0.617 3.012,-0.933c-0.039,-0.096 -0.077,-0.192 -0.115,-0.289c-1.121,-0.041 -1.985,0.037 -2.01,0.186c-0.311,-0.167 -0.62,-0.334 -0.887,-0.477l0,1.513Zm20.204,-4.164c-0.267,0.394 -0.458,0.678 -0.65,0.961c0.124,0.09 0.248,0.18 0.372,0.27c0.42,-0.479 0.841,-0.958 1.397,-1.591c-0.52,-0.302 -1.002,-0.582 -1.595,-0.926c0.133,-0.388 0.316,-0.924 0.471,-1.381c-0.174,-0.456 -0.343,-0.895 -0.618,-1.614c-1.475,-0.905 -3.269,-0.519 -5.058,0.225l0.033,0.321c0.523,-0.058 1.046,-0.116 1.654,-0.183c-0.118,0.67 -0.763,1.379 0.098,2.211c0.473,0.457 0.406,1.474 0.582,2.239l0.345,-0.034c0.048,-0.432 0.202,-0.883 0.123,-1.29c-0.142,-0.732 -0.425,-1.437 -0.671,-2.226c2.113,-0.057 2.113,-0.057 2.593,1.809c-0.365,0.129 -0.711,0.252 -1.045,0.37c0.795,0.339 1.397,0.596 1.969,0.839m-105.941,-94.01c0.116,0.576 0.232,1.152 0.33,1.638c1.633,-0.572 1.649,1.21 2.626,1.573c0.806,-0.173 1.734,-0.373 2.936,-0.63c-0.557,-0.207 -0.922,-0.251 -1.15,-0.452c-0.264,-0.234 -0.401,-0.609 -0.604,-0.914c-0.169,-0.254 -0.356,-0.496 -0.696,-0.966c0.287,-0.668 -1.698,-1.213 -0.46,-2.712c0.359,0.62 0.702,1.214 1.045,1.808c0.133,-0.076 0.266,-0.152 0.399,-0.228c-0.471,-0.822 -0.382,-1.569 0.527,-1.677c0.819,-0.098 1.209,0.59 1.236,1.395c0.018,0.48 0.003,0.963 0.003,1.508c-0.588,-0.338 -1,-0.572 -1.412,-0.808c-0.067,0.079 -0.133,0.157 -0.199,0.235c0.279,0.646 1.859,0.989 0.476,2.004c0.518,-0.036 0.981,-0.069 1.492,-0.105c0.005,1.54 -2.737,1.777 -1.278,3.667c0.312,-0.135 0.621,-0.268 0.918,-0.396c0,0.591 0.076,1.121 -0.027,1.613c-0.071,0.344 -0.192,0.958 -0.859,0.496c-0.118,-0.083 -0.371,0.029 -0.56,0.051c0.026,0.192 -0.007,0.423 0.088,0.57c0.535,0.824 0.923,1.635 0.381,2.634c-0.086,0.159 0.163,0.499 0.266,0.783c-0.344,0.367 -0.702,0.751 -1.125,1.203c1.524,0.378 1.71,1.76 2.299,2.827c0.071,0.13 0.107,0.367 0.038,0.473c-1.047,1.599 -0.924,3.769 -2.553,5.104c-0.342,0.281 -0.409,0.92 -0.558,1.408c-0.429,1.395 -0.831,2.797 -1.254,4.194c-0.053,0.17 -0.151,0.333 -0.254,0.481c-0.538,0.769 -0.602,1.569 -0.442,2.505c0.207,1.213 0.18,2.466 0.252,3.702c0.019,0.339 -0.05,0.705 0.056,1.012c0.341,1 0.661,2.021 1.141,2.956c0.98,1.915 2.02,3.802 3.106,5.661c1.352,2.314 2.75,4.603 4.176,6.872c0.689,1.097 1.552,2.086 2.228,3.19c1.505,2.455 3.449,4.573 5.268,6.771c1.854,2.242 3.926,4.324 6.058,6.308c2.013,1.873 4.174,3.602 6.372,5.258c2.491,1.877 5.067,3.646 7.667,5.37c0.87,0.576 1.943,0.836 2.895,1.297c1.941,0.941 3.849,1.952 5.801,2.867c0.727,0.342 1.54,0.503 2.317,0.735c2.631,0.79 4.828,2.4 7.151,3.772c0.244,0.145 0.592,0.102 0.856,0.224c0.92,0.428 1.805,0.936 2.739,1.326c1.485,0.621 2.962,1.313 4.51,1.719c2.318,0.611 4.691,1.019 7.047,1.473c0.909,0.176 1.838,0.26 2.76,0.359c2.961,0.316 5.921,0.662 8.888,0.913c1.874,0.158 3.76,0.21 5.642,0.223c0.937,0.007 1.875,-0.189 2.813,-0.276c1.302,-0.121 2.641,-0.076 3.896,-0.377c1.449,-0.347 2.811,-1.034 4.236,-1.496c0.877,-0.284 1.801,-0.422 2.811,-0.651c0.09,-0.088 0.299,-0.414 0.597,-0.558c0.388,-0.189 0.852,-0.216 1.274,-0.341c1.177,-0.351 2.341,-0.754 3.527,-1.069c1.529,-0.405 3.07,-0.768 4.616,-1.103c0.65,-0.141 1.335,-0.271 1.988,-0.217c2.279,0.183 4.452,-0.291 6.598,-0.948c0.436,-0.134 0.813,-0.46 1.216,-0.697l-0.088,-0.273c-1.089,0.184 -2.194,0.307 -3.258,0.584c-0.417,0.109 -0.716,0.776 -1.114,0.827c-1.337,0.171 -2.695,0.261 -4.04,0.223c-1.311,-0.037 -2.615,-0.265 -3.921,-0.418c-0.981,-0.116 -1.961,-0.246 -2.849,-0.357c0.281,-0.807 0.504,-1.453 0.744,-2.142c0.098,0.09 0.279,0.257 0.297,0.274c0.653,-0.207 1.202,-0.38 1.749,-0.553c0.43,-0.228 0.439,-1.34 1.519,-0.477c0.092,-0.427 0.179,-0.827 0.265,-1.227c0.106,-0.016 0.211,-0.033 0.317,-0.05c0.191,0.488 0.382,0.974 0.609,1.552c-0.137,0 0.044,0.044 0.076,-0.006c0.72,-1.16 1.244,-1.331 2.625,-0.832c0.755,0.272 1.483,-0.25 1.401,-1.096c-0.069,-0.714 -0.05,-1.053 0.846,-0.838c0.362,0.086 0.826,-0.34 1.263,-0.469c1.359,-0.403 2.606,0.11 3.624,0.491c0.365,-0.416 0.622,-0.969 0.925,-0.996c0.515,-0.045 1.07,0.214 1.587,0.399c0.377,0.135 1.247,-0.26 0.917,0.768c-0.017,0.053 0.32,0.264 0.516,0.333c1.197,0.423 2.403,0.825 3.735,1.278c-0.046,-0.381 -0.092,-0.747 -0.139,-1.123c0.97,-0.395 1.602,-0.221 2.284,0.619c1.254,-0.999 2.508,-1.998 3.747,-2.985c-0.077,-0.435 -0.286,-0.88 -0.174,-1.217c0.103,-0.31 0.531,-0.661 0.858,-0.709c0.471,-0.07 0.981,0.117 1.678,0.227c-0.322,-0.907 -0.487,-1.397 0.508,-1.69c0.635,-0.187 1.058,-0.939 1.972,-0.834c0.309,0.035 0.693,-0.702 1.062,-1.066c0.285,-0.281 0.6,-0.531 1.056,-0.928c-0.033,-0.249 -0.106,-0.826 -0.179,-1.403c0.944,-0.116 0.944,-0.116 1.536,1.371c-0.043,-0.223 -0.107,-0.444 -0.124,-0.668c-0.021,-0.299 -0.005,-0.601 -0.005,-0.952c-0.442,-0.123 -0.926,-0.146 -1.255,-0.384c-0.267,-0.19 -0.345,-0.64 -0.507,-0.975c0.257,-0.033 0.52,-0.04 0.77,-0.102c1.541,-0.383 1.48,0.897 1.693,1.895c0.124,-0.008 0.249,-0.015 0.375,-0.023c0.411,-0.855 0.822,-1.711 1.321,-2.749c0.525,0.567 0.961,1.037 1.488,1.606c1.904,-1.896 3.548,-3.976 4.967,-6.253c0.525,-0.842 1.168,-1.625 1.848,-2.351c1.409,-1.504 2.955,-2.885 4.296,-4.445c0.954,-1.111 1.597,-2.482 2.498,-3.646c1.672,-2.16 3.432,-4.254 5.153,-6.378c0.185,-0.229 0.359,-0.47 0.525,-0.714c1.445,-2.121 2.697,-4.316 3.409,-6.83c0.567,-1.999 1.61,-3.868 2.134,-5.875c0.575,-2.207 1.575,-4.187 2.577,-6.191c0.903,-1.804 1.233,-3.748 1.545,-5.726c0.205,-1.308 0.662,-2.652 1.326,-3.793c0.868,-1.492 0.649,-2.99 0.468,-4.497c-0.185,-1.546 -0.177,-2.944 0.544,-4.435c0.482,-0.997 0.315,-2.319 0.39,-3.498c0.05,-0.765 0.01,-1.536 0.018,-2.304c0.003,-0.3 0.068,-0.605 0.035,-0.9c-0.286,-2.59 -0.645,-5.174 -0.861,-7.77c-0.102,-1.229 0.057,-2.481 0.105,-3.723c0.013,-0.336 0.075,-0.672 0.075,-1.008c-0.002,-2.28 0.262,-4.605 -0.112,-6.823c-0.298,-1.767 -0.383,-3.605 -1.64,-5.304c-1.239,-1.673 -1.809,-3.955 -2.274,-6.057c-0.61,-2.766 -1.519,-5.335 -2.967,-7.781c-1.097,-1.853 -1.751,-3.963 -2.8,-5.849c-1.164,-2.089 -2.563,-4.048 -3.842,-6.074c-0.761,-1.208 -1.457,-2.457 -2.236,-3.653c-1.308,-2.006 -2.543,-4.077 -4.025,-5.95c-1.542,-1.95 -3.288,-3.749 -5.045,-5.513c-0.885,-0.889 -1.855,-1.602 -2.283,-2.907c-0.166,-0.507 -1.151,-0.704 -1.69,-1.134c-1.747,-1.396 -3.402,-2.913 -5.211,-4.22c-0.829,-0.599 -1.908,-0.901 -2.916,-1.191c-1.732,-0.498 -2.103,-0.991 -2.496,-2.775c-0.155,-0.706 -0.743,-1.504 -1.364,-1.888c-2.318,-1.427 -4.71,-2.742 -7.121,-4.011c-1.055,-0.555 -2.226,-0.893 -3.343,-1.333c-0.958,-0.377 -1.917,-0.754 -2.87,-1.145c-0.977,-0.399 -1.922,-0.891 -2.921,-1.211c-3.115,-0.996 -6.249,-1.933 -9.376,-2.889c-3.055,-0.933 -6.097,-1.81 -9.357,-1.855c-1.829,-0.025 -3.645,-0.621 -5.477,-0.899c-1.251,-0.19 -2.516,-0.348 -3.78,-0.386c-2.136,-0.065 -4.275,-0.007 -6.413,-0.035c-0.589,-0.008 -1.183,-0.107 -1.765,-0.217c-2.913,-0.554 -5.505,0.739 -8.222,1.366c-1.798,0.415 -3.641,0.824 -5.471,0.862c-2.854,0.059 -5.595,0.757 -8.393,1.063c-2.061,0.225 -3.7,1.586 -5.623,1.782c-1.802,0.184 -2.888,1.819 -4.638,1.811c-1.583,-0.007 -2.597,1.112 -3.849,1.776c-0.836,0.443 -1.714,0.958 -2.621,1.082c-1.748,0.24 -2.805,1.55 -4.178,2.356c-1.024,0.601 -1.998,1.249 -3.275,0.866c-0.164,-0.049 -0.409,-0.035 -0.546,0.057c-1.424,0.948 -2.846,1.905 -4.247,2.888c-1.214,0.853 -2.496,1.642 -3.576,2.644c-1.161,1.077 -2.094,2.396 -3.177,3.563c-1.613,1.738 -3.291,3.417 -4.902,5.158c-1.181,1.275 -2.284,2.623 -3.448,3.915c-1.517,1.684 -3.076,3.33 -4.583,5.021c-0.78,0.875 -1.513,1.795 -2.223,2.729c-0.927,1.221 -1.842,2.454 -2.7,3.725c-0.375,0.556 -0.551,1.242 -0.888,1.828c-1.869,3.254 -3.867,6.44 -5.604,9.764c-0.957,1.83 -1.475,3.889 -2.225,5.832c-0.331,0.856 -0.806,1.659 -1.109,2.524c-0.607,1.736 -1.251,3.472 -1.672,5.257c-0.416,1.768 -0.54,3.604 -0.869,5.397c-0.134,0.73 -0.47,1.422 -0.894,2.097c0.016,-0.857 0.631,-1.79 -0.643,-2.23c1.209,-0.653 1.88,-3.724 1.118,-4.951c-0.091,-0.148 -0.049,-0.378 -0.069,-0.57c0.289,0.051 0.579,0.103 0.921,0.164c-0.078,-0.461 -0.161,-0.953 -0.249,-1.478c-0.296,0.075 -0.572,0.145 -0.808,0.205c-1.202,-0.589 -1.202,-0.589 -1.427,-0.368c-0.809,-0.568 -1.604,-1.126 -2.33,-1.637c0.234,-0.66 0.47,-1.325 0.629,-1.774c-0.414,-0.617 -0.761,-1.131 -1.107,-1.646c0.09,-0.101 0.18,-0.203 0.27,-0.304c-0.741,-0.095 -1.481,-0.19 -2.261,-0.29c0.346,-0.652 1.238,-1.599 -0.198,-2.556c1.124,-0.298 0.737,-1.089 0.715,-1.725c-0.017,-0.474 -0.104,-0.963 -0.262,-1.409c-0.751,-2.122 -0.218,-4.149 0.861,-5.893c1.231,-1.989 1.945,-4.195 3.08,-6.201c0.854,-1.51 1.912,-2.904 2.829,-4.381c0.399,-0.642 0.631,-1.387 1.012,-2.042c0.535,-0.921 1.086,-1.839 1.72,-2.693c2.068,-2.785 4.108,-5.596 6.296,-8.287c1.418,-1.742 3.09,-3.275 4.619,-4.93c0.895,-0.97 1.696,-2.029 2.606,-2.984c0.772,-0.813 1.537,-1.712 2.485,-2.263c2.475,-1.439 4.063,-3.815 6.213,-5.583c0.315,-0.26 0.638,-0.512 0.97,-0.749c1.266,-0.909 2.54,-1.804 3.805,-2.715c1.185,-0.852 2.316,-1.793 3.553,-2.562c1.887,-1.173 3.828,-2.265 5.778,-3.331c2.58,-1.41 5.127,-2.907 7.806,-4.099c2.58,-1.147 5.313,-1.945 7.974,-2.912c1.524,-0.555 3.028,-1.171 4.561,-1.704c0.727,-0.252 1.502,-0.363 2.25,-0.557c3.125,-0.804 6.244,-1.591 9.514,-1.598c0.928,-0.002 1.853,-0.41 2.784,-0.61c0.841,-0.18 1.682,-0.429 2.533,-0.475c2.367,-0.13 4.74,-0.16 7.112,-0.251c1.39,-0.053 2.785,-0.266 4.168,-0.195c2.487,0.129 4.964,0.434 7.448,0.632c1.346,0.107 2.701,0.111 4.046,0.229c1.56,0.138 3.128,0.273 4.667,0.549c1.994,0.36 3.987,0.768 5.935,1.316c3.473,0.977 7.091,1.449 10.371,3.128c1.281,0.656 2.775,0.882 4.127,1.418c0.465,0.184 0.82,0.69 1.178,1.092c1.156,1.301 2.891,1.524 4.294,2.354c1.152,0.683 2.19,1.572 3.377,2.177c0.797,0.407 1.8,0.389 2.647,0.724c0.802,0.316 1.792,0.67 2.211,1.321c0.606,0.944 1.512,1.092 2.329,1.322c1.491,0.42 2.571,1.299 3.545,2.413c0.144,0.165 0.392,0.348 0.588,0.344c2.215,-0.056 3.797,1.286 5.26,2.608c1.593,1.438 3.303,2.634 5.129,3.735c1.072,0.645 1.97,1.587 2.916,2.43c1.637,1.455 3.21,2.982 4.881,4.395c1.951,1.651 3.678,3.462 5.178,5.557c1.665,2.327 3.66,4.417 5.415,6.683c0.921,1.19 1.632,2.541 2.452,3.81c0.279,0.432 0.584,0.852 0.911,1.249c1.976,2.399 3.015,5.293 4.293,8.062c0.241,0.524 0.57,1.023 0.933,1.474c1.446,1.791 2.238,3.873 2.947,6.036c1.076,3.284 2.459,6.473 3.441,9.782c0.857,2.89 1.297,5.901 2.003,8.838c0.373,1.546 0.739,3.027 0.567,4.678c-0.1,0.965 0.56,2.005 0.86,3.017c0.083,0.282 0.132,0.583 0.143,0.877c0.159,3.982 0.333,7.965 0.452,11.949c0.075,2.484 0.144,4.973 0.063,7.455c-0.055,1.709 -0.336,3.414 -0.584,5.111c-0.319,2.198 -0.656,4.396 -1.081,6.575c-0.215,1.103 -0.692,2.153 -0.957,3.25c-0.213,0.874 -0.276,1.782 -0.417,2.673c-0.183,1.163 -0.213,2.383 -0.597,3.476c-1.011,2.876 -2.151,5.708 -3.289,8.537c-1.241,3.089 -2.492,6.175 -3.826,9.224c-0.769,1.755 -1.648,3.468 -2.588,5.138c-1.39,2.468 -2.84,4.904 -4.339,7.307c-1.051,1.689 -2.232,3.295 -3.34,4.948c-0.819,1.222 -1.524,2.533 -2.442,3.674c-1.353,1.68 -2.852,3.242 -4.284,4.858c-0.471,0.531 -0.882,1.124 -1.398,1.604c-1.571,1.469 -3.097,3.008 -4.799,4.312c-1.9,1.457 -4.003,2.644 -5.962,4.027c-1.682,1.187 -3.252,2.534 -4.939,3.712c-0.866,0.605 -1.87,1.017 -2.831,1.476c-0.714,0.341 -1.518,0.526 -2.178,0.944c-1.38,0.871 -2.69,1.852 -4.031,2.784c-0.708,0.492 -1.325,0.459 -2.365,-0.149c-0.119,1.491 -1.543,1.507 -2.424,2.146c-0.102,0.075 -0.462,-0.133 -0.66,-0.271c-0.795,-0.555 -1.624,-0.448 -1.708,0.39c-0.17,1.688 -1.441,2.067 -2.638,2.481c-1.669,0.576 -3.397,0.978 -5.093,1.481c-0.413,0.123 -0.796,0.352 -1.337,0.598c-0.183,-0.459 -0.374,-0.941 -0.543,-1.367c-0.446,0.503 -0.897,1.011 -1.419,1.6c-0.696,-0.687 -1.244,-1.379 -0.993,-2.337c0.07,-0.268 0.597,-0.416 1.049,-0.704c-0.22,-0.423 -0.653,-0.966 -0.738,-1.56c-0.038,-0.259 0.637,-0.621 0.885,-0.844c-0.392,-0.493 -0.978,-1.227 -1.576,-1.976c0.589,-0.171 1.178,-0.344 2.07,-0.603c-0.723,-0.767 -1.338,-1.419 -2.051,-2.175c0.236,-0.444 -0.029,-0.769 -0.816,-0.706c-1.374,0.109 -2.751,0.205 -4.119,0.37c-0.237,0.028 -0.438,0.366 -0.497,0.419c-0.695,-0.039 -1.356,-0.245 -1.888,-0.064c-0.624,0.211 -1.136,0.756 -1.539,1.376c-0.439,-0.024 -0.878,-0.048 -1.257,-0.069l0,1.328c0.258,-0.351 0.437,-0.595 0.62,-0.842c0.307,0.108 0.613,0.216 0.902,0.318c-0.408,1.008 -0.802,1.98 -1.193,2.946c0.341,0.045 0.737,0.098 1.34,0.178c-1.27,0.687 -0.805,1.163 0.129,1.583c0.322,-0.438 0.608,-1.148 1.128,-1.445c0.558,-0.318 1.338,-0.246 2.01,-0.342c0.138,-0.5 0.304,-1.106 0.531,-1.931c0.423,0.467 0.633,0.7 0.873,0.966c0.271,-0.224 0.527,-0.434 0.677,-0.559c0.499,0.272 0.95,0.518 1.553,0.848c-0.08,0.167 -0.241,0.507 -0.37,0.782c0.628,0.166 1.272,0.336 1.838,0.485c-0.452,1.249 -0.615,2.422 -1.916,3.041c-0.135,-0.084 -0.449,-0.279 -0.795,-0.492c-0.403,1.173 -1.447,0.451 -2.319,0.648c0.021,-0.276 0.036,-0.481 0.06,-0.794c-0.318,0.047 -0.612,0.092 -0.89,0.133c-0.016,0.081 -0.037,0.123 -0.026,0.136c1.459,1.657 -1.401,1.682 -1.157,2.915c-0.053,-0.263 -0.105,-0.527 -0.173,-0.868c-0.35,0.179 -0.64,0.326 -0.998,0.509c0.138,0.234 0.252,0.425 0.562,0.948c-1.246,-0.096 -2.259,-0.023 -3.165,-0.298c-0.609,-0.185 -0.855,-0.203 -1.267,0.296c-0.641,0.772 -1.361,1.509 -2.163,2.103c-0.338,0.25 -0.98,0.065 -1.474,0.139c-0.301,0.044 -0.787,0.141 -0.846,0.325c-0.336,1.043 -0.994,1.184 -1.986,1.052c-1.009,-0.134 -2.056,-0.103 -3.075,-0.012c-1.55,0.138 -3.085,0.445 -4.636,0.573c-0.839,0.069 -1.695,-0.104 -2.545,-0.133c-2.403,-0.085 -4.808,-0.119 -7.21,-0.234c-2.321,-0.112 -4.672,-0.112 -6.951,-0.505c-2.333,-0.401 -4.708,-0.462 -7.021,-1.213c-2.37,-0.769 -4.947,-0.873 -7.374,-1.501c-1.972,-0.511 -3.854,-1.37 -5.781,-2.062c-0.258,-0.093 -0.54,-0.125 -0.815,-0.156c-1.037,-0.12 -1.96,-0.416 -2.214,-1.078c-1.179,-0.395 -2.044,-0.669 -2.896,-0.974c-1.455,-0.521 -2.915,-1.032 -4.347,-1.611c-0.469,-0.189 -0.832,-0.63 -1.291,-0.864c-2.275,-1.155 -4.555,-2.304 -6.859,-3.399c-0.605,-0.287 -1.045,-0.438 -0.759,-1.286c0.146,-0.429 -0.124,-1 -0.204,-1.49c-0.519,-0.204 -1.192,-0.289 -1.553,-0.669c-0.275,-0.288 -0.152,-0.954 -0.22,-1.575c-0.328,0 -0.771,-0.01 -1.213,0.003c-0.708,0.02 -0.948,-0.195 -0.378,-0.834c-0.848,0.193 -1.413,-0.003 -1.66,-0.857c-0.044,-0.15 -0.306,-0.279 -0.493,-0.339c-1.01,-0.321 -2.245,-0.003 -3,-1.098c-0.069,-0.1 -0.537,0.073 -0.874,0.128c0.145,-0.238 0.27,-0.444 0.573,-0.942c-0.673,0.362 -1.059,0.569 -1.735,0.932c-1.868,-1.378 -4.192,-2.844 -5.931,-5.053c-0.553,-0.703 -1.282,-1.266 -1.931,-1.894c-1.578,-1.527 -3.155,-3.055 -4.734,-4.58c-0.19,-0.183 -0.406,-0.34 -0.585,-0.532c-0.826,-0.892 -1.967,-1.658 -2.403,-2.713c-1.135,-2.749 -3.712,-4.321 -5.151,-6.795c-0.547,-0.939 -1.389,-1.702 -2.03,-2.592c-0.359,-0.499 -0.861,-1.121 -0.816,-1.645c0.12,-1.388 -1.032,-1.806 -1.651,-2.637c-0.719,-0.963 -1.375,-1.975 -2.028,-2.985c-0.74,-1.144 -1.574,-2.253 -2.127,-3.484c-0.407,-0.908 -0.378,-2.004 -0.645,-2.988c-0.126,-0.464 -0.448,-0.902 -0.764,-1.282c-0.452,-0.545 -0.617,-0.932 0.535,-1.12c-0.693,-0.68 -1.28,-1.257 -2.127,-2.088c2.341,0.438 0.957,-0.912 1.066,-1.158c-0.735,-0.473 -1.429,-0.921 -2.176,-1.401c0.865,-1.026 0.061,-2.164 -0.277,-3.287c-0.327,-1.087 -0.833,-2.119 -1.312,-3.304c0.543,-1.963 -0.621,-3.122 -2.613,-3.865c0.533,-0.794 0.952,-1.42 1.506,-2.246c-0.132,-0.071 -0.441,-0.211 -0.725,-0.392c-0.356,-0.226 -0.996,-0.498 -0.985,-0.727c0.053,-1.203 -1.39,-2.372 0.03,-3.675c0.36,-0.332 -0.019,-1.472 -0.06,-2.274c-0.678,0.108 -1.349,0.356 -1.258,-0.769c0.037,-0.461 -0.307,-0.948 -0.463,-1.428c-0.162,-0.499 -0.211,-0.908 0.542,-0.598c0.063,0.026 0.242,-0.063 0.254,-0.122c0.025,-0.124 0.019,-0.294 -0.05,-0.391c-0.255,-0.352 -0.54,-0.682 -0.801,-1.006c0.481,-0.526 0.939,-1.025 1.557,-1.7c0.089,0.149 0.222,0.371 0.42,0.701c0.259,-0.425 0.474,-0.777 0.688,-1.13c-0.004,-0.012 -0.007,-0.023 -0.01,-0.035c0.233,-0.46 0.519,-0.901 0.688,-1.383c0.311,-0.891 0.634,-1.793 0.788,-2.717c0.075,-0.453 -0.196,-0.975 -0.354,-1.452c-0.061,-0.185 -0.24,-0.331 -0.365,-0.495c0.2,-0.002 0.403,0.016 0.6,-0.01c0.221,-0.03 0.437,-0.101 0.7,-0.164c-0.28,-0.294 -0.555,-0.482 -0.677,-0.741c-0.128,-0.273 -0.11,-0.616 -0.156,-0.929c1.417,-0.057 0.823,-1.377 1.233,-2.059c0.632,-1.053 -0.645,-1.111 -1.03,-1.668c-0.962,0.964 -1.327,1.939 -0.788,3.204c0.112,0.261 -0.246,1.015 -0.513,1.09c-0.76,0.214 -0.811,-0.407 -0.79,-0.98c0.01,-0.263 0.001,-0.528 0.001,-0.524c0.318,-0.414 0.495,-0.644 0.67,-0.873c-0.364,-0.175 -0.73,-0.35 -1.261,-0.605c-0.152,-0.207 -0.395,-0.7 -0.778,-1.029c-0.667,-0.571 -0.647,-1.966 0.088,-2.462c0.275,-0.185 0.495,-0.449 0.826,-0.758c0.057,0.083 0.22,0.319 0.374,0.54c0.21,-0.702 0.507,-0.681 0.966,-0.156c0.383,0.438 0.817,0.846 1.287,1.185c0.433,0.31 0.945,0.509 1.63,0.867c-0.154,-0.371 -0.232,-0.561 -0.222,-0.535c0.591,-0.801 1.101,-1.493 1.565,-2.123c-0.131,-0.591 -0.248,-1.115 -0.387,-1.74c-0.714,-0.241 -1.164,-1.947 -2.438,-0.802c-0.382,-0.323 -0.736,-0.623 -1.136,-0.961c0.247,-0.289 0.502,-0.589 0.837,-0.981c0.249,0.564 0.406,0.921 0.69,1.565c0.296,-0.468 0.49,-0.775 0.684,-1.082c-0.551,-0.301 -1.101,-0.602 -1.652,-0.902c-0.056,0.086 -0.112,0.173 -0.168,0.26c0.029,-0.603 0.058,-1.205 0.1,-2.086c0.043,-0.027 0.346,-0.221 0.641,-0.409c-0.389,-0.389 -1.072,-0.77 -0.443,-1.218c0.906,0.316 1.633,0.569 2.408,0.84l0,1.813c0.193,0.062 0.565,0.18 0.798,0.255c0.135,-0.349 0.333,-0.632 0.332,-0.913c-0.003,-0.491 -0.177,-0.98 -0.191,-1.472c-0.014,-0.497 0.08,-0.997 0.134,-1.572c-0.583,0.127 -0.917,-1.127 -1.774,-0.38c-0.028,0.024 -0.409,-0.286 -0.55,-0.493c-0.056,-0.081 0.097,-0.438 0.15,-0.438c0.193,0.005 0.384,0.108 0.636,0.195c-0.051,-0.222 -0.102,-0.443 -0.152,-0.66c0.213,-0.087 0.425,-0.175 0.637,-0.261c-0.218,-0.078 -0.445,-0.238 -0.651,-0.215c-0.396,0.044 -0.781,0.191 -1.244,0.316c-0.117,-0.314 -0.237,-0.639 -0.411,-1.109l2.923,0c-0.084,-0.244 -0.211,-0.615 -0.338,-0.987c-0.203,-0.591 -0.263,-1.038 0.293,-1.612c0.361,-0.371 0.209,-1.238 0.287,-1.884l-0.027,0.028c0.287,-0.105 0.573,-0.209 1.029,-0.375c1.434,0.717 1.329,2.301 1.452,3.808c-0.255,0.08 -0.588,0.185 -0.92,0.289c0.013,0.081 0.026,0.163 0.038,0.244c0.519,-0.051 1.039,-0.101 1.684,-0.164c-0.289,0.26 -0.49,0.439 -0.721,0.646c0.404,0.291 1.201,0.449 0.297,1.079c-0.164,0.114 -0.114,0.668 -0.025,0.98c0.146,0.514 0.405,0.996 0.643,1.554c0.834,-0.573 1.758,-0.429 2.007,0.58c0.181,0.731 -0.259,1.616 -0.43,2.468c-0.668,-0.991 -1.189,-1.764 -1.636,-2.427c-0.661,0.047 -1.261,0.089 -1.984,0.14c0.221,0.419 0.489,0.931 0.797,1.516c0.265,-0.29 0.503,-0.55 0.76,-0.831c0.399,0.566 1.442,0.885 0.687,1.908c-0.953,-0.931 -1.427,-0.77 -1.832,0.479c-0.07,0.214 -0.58,0.285 -1.051,0.495c-0.13,0.322 -0.343,0.847 -0.556,1.372l0.175,0.126c0.204,-0.171 0.436,-0.317 0.607,-0.516c0.617,-0.723 1.476,-0.828 1.849,-0.042c0.315,0.663 0.542,1.114 1.342,1.055c0.111,-0.008 0.241,0.243 0.296,0.655c-0.713,-0.111 -1.44,-0.169 -2.136,-0.347c-0.804,-0.206 -0.793,-0.253 -0.77,-1.199c-0.096,-0.016 -0.192,-0.032 -0.289,-0.048c-0.101,0.63 -0.388,1.301 -0.257,1.878c0.165,0.725 0.206,1.234 -0.343,1.825c-0.416,0.449 -0.48,1.067 0.035,1.252c0.779,-0.785 1.436,-1.446 2.093,-2.108c0.072,0.04 0.143,0.081 0.214,0.121c-0.134,0.321 -0.268,0.642 -0.439,1.05c0.224,0.105 0.498,0.234 0.835,0.394c-0.157,0.248 -0.286,0.449 -0.457,0.719c0.263,0.109 0.482,0.201 0.705,0.294c-0.171,0.296 -0.329,0.57 -0.487,0.844c0.055,0.051 0.11,0.102 0.166,0.153c0.24,-0.11 0.482,-0.22 0.717,-0.328c0.129,0.387 0.255,0.772 0.417,1.264c0.556,-0.449 1.088,-0.88 1.62,-1.31c0.1,0.083 0.201,0.166 0.301,0.25c-0.211,0.261 -0.423,0.524 -0.661,0.819c0.891,-0.035 1.503,1.197 2.676,0.724c0.129,-0.051 0.453,0.383 0.687,0.592l-0.036,-0.037Z" style="fill:#f7e9b1;fill-rule:nonzero;"/><path d="M196.138,148.142c0.354,0.185 0.723,0.347 1.058,0.562c0.374,0.239 0.719,0.526 1.006,0.74c1.072,-0.724 2.035,-1.491 1.075,-2.912c-0.372,-0.549 -0.734,-1.105 -1.211,-1.522c-0.174,-0.711 -0.382,-1.416 -0.513,-2.135c-0.101,-0.552 -0.225,-1.143 -0.131,-1.679c0.306,-1.75 0.339,-3.562 1.811,-4.972c0.587,-0.562 0.908,-1.66 0.914,-2.519c0.014,-1.857 0.083,-3.829 -0.495,-5.544c-0.663,-1.965 -1.211,-4.316 -3.778,-4.977c-0.226,-0.058 -0.402,-0.32 -0.597,-0.492c-0.408,-0.36 -0.813,-0.722 -1.383,-1.229c0.06,-1.91 -1.146,-2.861 -3.417,-2.82c1.034,-0.714 1.034,-0.714 0.17,-2.043c-0.222,0.24 -0.431,0.466 -0.858,0.928c0.172,-0.482 0.19,-0.807 0.325,-0.865c1.146,-0.504 0.928,-1.568 0.72,-2.327c-0.268,-0.977 -0.72,-2.233 -1.493,-2.682c-2.638,-1.533 -5.483,-2.705 -8.186,-4.134c-1.864,-0.985 -3.86,-0.935 -5.846,-1.1c-0.975,-0.081 -1.947,-0.223 -2.924,-0.277c-2.511,-0.138 -4.908,0.459 -7.201,1.38c-1.874,0.75 -3.657,1.722 -5.508,2.609c-0.665,-0.834 -1.632,-1.691 -2.123,-2.765c-0.484,-1.056 -0.484,-2.334 -0.701,-3.513c-0.04,-0.214 -0.051,-0.456 -0.161,-0.631c-0.684,-1.093 -1.405,-2.161 -2.082,-3.257c-0.208,-0.338 -0.532,-0.809 -0.436,-1.095c0.503,-1.502 -0.725,-2.343 -1.172,-3.479c-0.196,-0.498 -0.139,-1.092 -0.243,-1.633c-0.046,-0.234 -0.207,-0.635 -0.321,-0.637c-1.73,-0.031 -1.572,-1.483 -1.931,-2.527c-0.371,-1.081 -0.946,-2.172 -0.977,-3.271c-0.035,-1.304 -0.81,-2.111 -1.328,-3.114c-0.127,-0.248 -0.067,-0.663 0.042,-0.951c0.448,-1.186 -0.347,-2.822 0.99,-3.426c1.796,0.843 3.362,1.734 5.034,2.326c2.31,0.818 4.666,1.587 7.065,2.048c2.256,0.433 4.593,0.568 6.897,0.604c3.504,0.054 6.811,-1.043 10.123,-2.053c1.577,-0.482 3.197,-0.82 4.773,-1.302c0.616,-0.187 1.165,-0.589 1.845,-0.947c-0.313,-0.287 -0.69,-0.633 -1.066,-0.978c0.045,-0.112 0.09,-0.225 0.134,-0.337c0.419,0.14 1.009,0.155 1.222,0.446c0.483,0.658 0.797,0.426 1.365,0.124c2.659,-1.413 4.878,-3.396 7.075,-5.397c0.555,-0.504 0.815,-1.319 1.277,-1.942c1.128,-1.519 2.307,-3.001 3.441,-4.515c0.409,-0.546 0.724,-1.163 1.138,-1.706c0.157,-0.204 0.455,-0.339 0.716,-0.418c0.567,-0.172 1.147,-0.443 0.921,-1.088c-0.195,-0.557 -0.2,-1.619 -1.361,-1.184c-0.054,0.02 -0.137,-0.039 -0.207,-0.062c0.063,-0.287 0.227,-0.801 0.176,-0.824c-0.423,-0.185 -0.882,-0.301 -1.341,-0.363c-0.043,-0.006 -0.156,0.507 -0.337,1.122c-0.173,-0.565 -0.259,-0.846 -0.343,-1.12c-0.323,-0.041 -0.72,-0.092 -1.115,-0.142c0.142,-0.192 0.283,-0.384 0.419,-0.569c-1.288,-0.442 -1.288,-0.442 -1.483,-0.144c0.755,0.772 1.476,1.51 2.199,2.248c-0.026,0.056 -0.052,0.112 -0.078,0.168c-0.495,-0.296 -0.99,-0.592 -1.572,-0.94c-0.084,0.086 -0.322,0.337 -0.812,0.852c-0.073,-0.678 -0.12,-1.103 -0.165,-1.527c0.042,-0.006 0.084,-0.012 0.127,-0.018c-0.177,-0.671 -0.354,-1.341 -0.53,-2.012c0.134,-0.432 0.135,-0.794 -0.022,-1.453c-0.188,-0.788 -0.494,-1.408 -0.869,-2.075c-0.138,-0.247 -0.036,-0.67 0.044,-0.992c0.321,-1.284 0.898,-2.548 0.964,-3.841c0.096,-1.85 -0.84,-3.377 -1.934,-4.905c-1.225,-1.71 -2.923,-0.974 -4.371,-1.241c-1.499,-0.277 -3.142,-0.318 -4.634,0.424c-0.164,0.082 -0.477,0.115 -0.586,0.019c-0.997,-0.885 -1.993,-0.252 -3.034,-0.115c-3.726,0.493 -7.126,1.96 -10.477,3.502c-1.833,0.844 -3.514,2.05 -5.189,3.201c-3.657,2.515 -6.368,5.982 -9.149,9.36c-0.789,0.96 -1.343,2.11 -2.028,3.157c-0.148,0.227 -0.372,0.506 -0.605,0.556c-1.584,0.337 -3.177,0.634 -4.774,0.9c-0.199,0.033 -0.442,-0.2 -0.76,-0.358c0.059,0.632 0.114,1.217 0.176,1.877c-1.118,0.197 -1.586,-0.494 -1.935,-1.373c-0.253,-0.636 -0.516,-1.267 -0.775,-1.901c-0.014,-0.035 -0.014,-0.099 -0.034,-0.105c-2.597,-0.738 -1.944,-3.404 -3.177,-5.03c-0.938,-0.408 -2.239,-0.648 -3.015,-1.419c-0.556,-0.552 -0.469,-1.807 -0.55,-2.758c-0.041,-0.487 0.179,-0.996 0.285,-1.516c-0.78,-0.03 -1.994,-1.27 -2.062,-1.853c-0.094,-0.8 -0.153,-1.652 -0.48,-2.366c-0.925,-2.018 -1.972,-3.981 -2.995,-5.953c-0.087,-0.168 -0.349,-0.245 -0.434,-0.302c0,-0.637 -0.033,-1.303 0.02,-1.962c0.017,-0.204 0.282,-0.563 0.415,-0.555c1.835,0.114 2.897,-1.245 3.806,-2.369c1.279,-1.581 2.588,-3.004 4.31,-4.118c2.174,-1.407 4.141,-3.148 6.36,-4.47c2.889,-1.723 5.928,-3.195 8.923,-4.736c1.455,-0.749 2.911,-1.536 4.448,-2.077c2.62,-0.922 5.303,-1.664 7.961,-2.48c2.378,-0.729 4.738,-1.535 7.147,-2.145c1.178,-0.3 2.449,-0.255 3.681,-0.324c1.957,-0.111 3.944,-0.428 5.868,-0.21c1.918,0.216 3.677,-0.353 5.515,-0.449c0.47,-0.025 0.948,0.127 1.424,0.187c3.58,0.451 7.157,0.911 10.738,1.345c2.756,0.334 5.457,0.873 8.088,1.79c1.77,0.617 3.57,1.21 5.406,1.555c2.775,0.522 5.232,1.844 7.809,2.852c1.383,0.542 2.666,1.399 3.889,2.262c0.647,0.455 1.07,1.226 1.594,1.855c-0.067,0.078 -0.134,0.156 -0.201,0.233c-0.298,-0.024 -0.596,-0.048 -1.033,-0.083c0.443,0.486 0.788,0.861 1.325,1.45c-1.11,-0.538 -1.97,-0.955 -2.868,-1.39c-0.174,0.623 -0.296,1.059 -0.418,1.496c-0.172,-0.322 -0.343,-0.644 -0.515,-0.965c-0.081,-0.005 -0.163,-0.01 -0.245,-0.015l0,2.102c-0.043,0.009 -0.293,0.061 -0.616,0.128c0.312,0.34 0.564,0.615 0.911,0.992c-0.189,0.16 -0.382,0.322 -0.569,0.48c-3.285,-2.67 -6.435,-5.448 -10.343,-7.117c-3.04,-1.298 -6.175,-2.218 -9.475,-2.654c-2.049,-0.27 -3.959,0.129 -5.949,0.402c-2.322,0.319 -4.74,0.522 -7.032,-0.462c-2.266,-0.972 -4.645,-1.152 -7.053,-0.8c-2.748,0.402 -5.502,0.804 -8.217,1.382c-2.448,0.522 -4.915,1.096 -7.251,1.974c-4.405,1.656 -8.764,3.455 -13.059,5.381c-2.007,0.9 -3.861,2.173 -5.709,3.388c-1.911,1.257 -3.792,2.578 -5.57,4.013c-1.041,0.839 -1.851,1.963 -2.782,2.942c-0.165,0.173 -0.417,0.261 -0.63,0.388c-0.089,-0.267 -0.177,-0.534 -0.355,-1.067c-1.561,0.632 -3.127,1.266 -4.962,2.01c0.646,0.223 0.94,0.324 1.278,0.441c-0.467,0.652 -0.892,1.243 -1.313,1.83c0.885,0.752 2.006,0.671 3.362,-0.313c0.628,1.177 1.08,2.473 1.903,3.456c1.194,1.426 0.391,3.04 0.768,4.521c0.258,1.011 0.34,2.065 0.504,3.1c0.259,1.648 1.097,2.913 2.526,3.907l-1.213,0c-0.009,0.056 -0.018,0.113 -0.027,0.169c0.405,0.166 0.811,0.331 1.299,0.53c0.577,-0.978 1.391,-0.254 2.119,-0.091c0.671,0.152 0.666,0.625 0.392,1.214c-0.141,0.301 1.25,2.122 1.563,2.072c0.221,-0.036 0.511,-0.335 0.566,-0.565c0.122,-0.516 0.065,-1.071 0.179,-1.59c0.117,-0.543 0.334,-0.887 1.066,-1.037c2.558,-0.521 4.415,-2.246 6.21,-4.01c1.075,-1.057 2.189,-2.082 3.184,-3.211c2.396,-2.717 4.774,-5.453 7.072,-8.253c0.909,-1.107 2.197,-1.158 3.346,-1.437c2.2,-0.535 4.455,-0.901 6.709,-1.123c1.114,-0.109 2.275,0.249 3.412,0.414c2.514,0.362 5.004,0.631 7.557,0.118c0.854,-0.172 1.917,0.16 2.752,0.548c2.555,1.185 4.514,3.057 5.807,5.589c0.546,1.067 1.354,2.014 1.232,3.363c-0.028,0.3 0.628,0.607 0.781,0.987c0.894,2.212 1.994,4.356 1.791,6.891c-0.043,0.539 0.209,1.048 -0.243,1.555c-0.123,0.138 0.006,0.536 0.073,0.803c0.446,1.786 0.342,3.519 -0.347,5.062c-0.784,-0.304 -1.709,-0.997 -2.143,-0.766c-0.943,0.501 -1.634,1.475 -2.617,2.442c1.043,0.226 1.726,0.374 2.409,0.522c0.033,-0.083 0.066,-0.165 0.099,-0.248c-0.211,-0.122 -0.422,-0.244 -0.633,-0.367c0.043,-0.128 0.086,-0.256 0.129,-0.384l2.187,0c-0.032,0.249 0.014,0.496 -0.087,0.594c-1.596,1.56 -2.434,3.664 -3.841,5.337c-0.728,0.866 -1.281,2.095 -2.682,2.253c-0.139,0.016 -0.192,0.463 -0.351,0.655c-1.978,2.389 -4.629,3.719 -7.476,4.747c-0.506,0.182 -0.961,0.51 -1.469,0.681c-3.298,1.104 -6.624,2.095 -10.131,2.266c-2.961,0.146 -5.922,0.276 -8.88,0.458c-2.898,0.179 -5.803,0.359 -8.552,1.419c-0.679,0.262 -1.312,0.643 -2.077,1.024c-0.678,-1.026 -2.874,-0.892 -3.231,-2.898c-0.333,0.685 -0.948,1.059 -0.639,2.193c0.33,1.215 1.601,0.693 1.968,1.801c-0.367,-0.102 -0.603,-0.167 -0.844,-0.234c0.139,0.953 0.596,0.969 1.181,0.417c0,0.641 -0.163,1.337 0.068,1.862c0.119,0.271 0.933,0.238 1.758,0.409c0.189,0.578 0.539,1.487 0.786,2.423c0.515,1.954 1.237,3.846 2.457,5.436c1.487,1.94 3.141,2.456 5.38,1.8c2.975,-0.871 5.932,-1.026 8.929,-0.008c2.825,0.959 5.787,1.574 8.523,2.732c4.111,1.738 8.443,3.139 11.995,5.949c2.548,2.014 4.813,4.364 6.721,7.039c2.43,3.407 4.299,7.094 5.563,11.066c0.355,1.115 0.268,2.37 0.387,3.561c0.014,0.147 -0.002,0.362 0.085,0.426c0.963,0.709 0.424,1.78 0.667,2.657c0.083,0.3 0.197,0.609 0.371,0.864c0.63,0.922 0.046,1.834 -0.006,2.743c-0.129,2.19 -0.171,4.388 -0.852,6.518c-0.217,0.681 -0.12,1.462 -0.169,2.236c-0.224,0.397 -0.7,0.879 -0.757,1.406c-0.206,1.897 -1.508,3.118 -2.577,4.479c-1.08,1.378 -2.107,2.834 -3.382,4.014c-1.643,1.519 -3.401,2.977 -5.313,4.125c-1.614,0.969 -3.501,1.5 -5.3,2.134c-0.608,0.215 -1.314,0.154 -2.15,0.237c0.235,-0.374 0.389,-0.618 0.555,-0.882l-1.572,0c-0.054,0.288 -0.106,0.568 -0.158,0.848c-0.185,-0.212 -0.369,-0.425 -0.747,-0.86c-0.395,0.048 -1.128,0.08 -1.838,0.231c-2.638,0.558 -5.181,0.211 -7.738,-0.562c-4.413,-1.336 -8.679,-2.97 -12.558,-5.514c-2.599,-1.704 -5.329,-3.229 -7.804,-5.094c-2.741,-2.065 -5.418,-4.259 -7.385,-7.157c-1.822,-2.683 -5.319,-2.347 -7.327,-0.501c-2.085,1.916 -3.149,4.474 -4.368,6.93c-0.75,1.51 -2.002,2.46 -3.416,3.239c-0.573,0.315 -1.233,0.475 -1.791,0.811c-0.783,0.471 -1.057,2.135 -0.603,3.53c0.707,2.171 1.934,3.969 3.51,5.666c1.654,1.782 3.479,3.256 5.595,4.333c1.794,0.913 3.717,1.595 5.622,2.269c2.502,0.885 5.045,1.657 7.569,2.485c2.294,0.753 4.632,1.159 7.061,1.145c2.103,-0.012 4.208,0.127 6.312,0.218c0.247,0.011 0.511,0.102 0.731,0.223c0.707,0.389 1.358,0.96 2.259,0.489c0.083,-0.045 0.26,0.122 0.401,0.147c1.375,0.24 2.745,0.56 4.131,0.666c0.744,0.058 1.512,-0.34 2.277,-0.381c1.328,-0.071 2.661,0.005 3.99,-0.031c1.688,-0.046 3.375,-0.224 5.061,-0.197c3.611,0.056 7.131,-0.605 10.686,-1.095c4.722,-0.651 9.045,-2.345 13.306,-4.354c4.475,-2.111 9.073,-3.97 13.488,-6.197c2.478,-1.251 4.702,-3.011 7.025,-4.563c3.418,-2.284 5.382,-5.738 7.271,-9.221c1.861,-3.434 2.994,-7.131 3.937,-10.923c0.782,-3.145 1.399,-6.278 1.281,-9.517c-0.057,-1.523 -0.244,-3.045 -0.448,-4.557c-0.258,-1.911 -0.328,-3.906 -0.962,-5.692c-0.873,-2.451 -2.112,-4.788 -3.351,-7.089c-1.83,-3.397 -4.625,-6.05 -7.288,-8.761c-2.112,-2.15 -4.711,-3.688 -7.449,-4.991c-4.053,-1.928 -8.396,-2.78 -12.749,-3.596c-2.478,-0.463 -4.992,-0.727 -7.47,-1.185c-0.995,-0.183 -1.971,-0.575 -2.889,-1.011c-0.387,-0.186 -0.687,-0.695 -0.877,-1.123c-0.272,-0.617 0.11,-1.196 0.691,-1.093c2.077,0.37 3.939,-0.432 5.896,-0.8c3.43,-0.646 6.724,-1.619 9.959,-2.936c2.292,-0.932 4.043,-2.42 5.574,-4.252c1.696,-2.028 3.399,-4.055 4.991,-6.164c0.967,-1.282 1.793,-2.684 2.574,-4.092c1.732,-3.125 3.18,-6.355 4.378,-9.751c1.503,-4.262 1.664,-8.583 1.425,-12.939c-0.118,-2.129 -0.879,-4.248 -1.53,-6.314c-0.508,-1.612 -1.156,-3.216 -1.998,-4.677c-0.882,-1.53 -2.044,-2.904 -3.14,-4.303c-0.516,-0.658 -0.17,-1.003 0.38,-1.076c0.714,-0.095 1.466,0.087 1.956,-0.67c0.048,-0.075 0.352,0.015 0.637,0.036c-0.321,-0.508 -0.568,-0.899 -0.817,-1.292c0.093,-0.056 0.186,-0.112 0.279,-0.168c0.124,0.222 0.249,0.445 0.279,0.498l1.961,0c-0.289,0.318 -0.514,0.565 -0.738,0.812c1.21,-0.59 2.263,-0.699 3.226,0.36c0.066,0.073 0.186,0.113 0.288,0.136c0.972,0.218 0.979,0.23 0.492,1.125c0.818,-0.302 1.293,-0.164 1.558,0.771c1.05,3.718 2.282,7.387 3.245,11.126c0.544,2.11 0.726,4.316 1.013,6.487c0.12,0.908 -0.152,1.614 -0.891,2.368c-1.076,1.096 -1.51,2.646 -1.586,4.223c-0.032,0.642 -0.039,1.289 0.015,1.927c0.018,0.202 0.27,0.383 0.479,0.66c-0.131,0.521 -0.292,1.262 -0.506,1.986c-0.427,1.451 -1.045,2.786 -1.872,4.088c-1.203,1.892 -2.052,4.005 -3.173,5.955c-0.702,1.221 -1.628,2.312 -2.449,3.465c-0.382,0.537 -0.771,1.071 -1.125,1.627c-1.293,2.025 -2.441,4.163 -4.554,5.516c-0.309,0.198 -0.774,0.483 -0.792,0.751c-0.089,1.427 -1.227,2.048 -2.065,2.9c-0.833,0.849 -1.675,1.69 -2.53,2.517c-0.176,0.171 -0.429,0.264 -0.643,0.398c-0.366,0.227 -0.729,0.457 -1.34,0.843c1.097,0.553 1.836,1.027 2.642,1.315c3.676,1.311 6.834,3.495 9.89,5.839c2.005,1.539 4.129,2.99 5.864,4.801c3.003,3.134 6.157,6.173 8.126,10.18c0.592,1.203 1.704,2.159 2.62,3.191c1.008,1.136 2.114,2.189 3.08,3.358c0.51,0.619 0.828,1.401 1.207,2.124c0.342,0.651 0.902,1.315 0.918,1.985c0.032,1.318 0.756,1.987 1.69,2.679c0.368,0.272 0.499,0.864 0.902,1.615c-1.08,-0.169 -1.984,-0.31 -3.185,-0.497c-0.365,1.479 -0.746,3.137 -1.185,4.78c-0.443,1.659 -0.872,3.328 -1.44,4.946c-0.644,1.831 -1.409,3.621 -2.174,5.407c-0.727,1.694 -1.449,3.399 -2.309,5.027c-0.898,1.699 -1.84,3.399 -2.973,4.943c-2.093,2.853 -4.324,5.607 -6.532,8.373c-0.888,1.113 -1.868,2.154 -2.882,3.315c1.163,0.55 2.151,1.08 3.185,1.49c1.035,0.409 2.124,0.691 2.297,1.913c-0.606,0.08 -1.194,0.158 -2.002,0.266c-0.619,-0.255 -0.692,-1.607 -1.93,-1.563c-0.219,0.007 -0.462,-0.652 -0.865,-0.935c0.037,0.251 0.074,0.502 0.111,0.753c-0.062,0.059 -0.124,0.119 -0.186,0.178c-0.17,-0.195 -0.315,-0.419 -0.514,-0.577c-0.196,-0.157 -0.445,-0.249 -0.67,-0.37c-0.018,0.91 -1.046,0.375 -1.4,1.008c-0.341,0.613 -1.078,1.007 -1.646,1.492c-0.686,0.587 -1.258,0.626 -1.889,-0.002c0.099,1.647 -0.872,2.372 -2.11,2.98c-0.398,0.195 -0.509,0.93 -0.901,1.195c-0.579,0.392 -1.293,0.584 -1.959,0.866c0.115,0.319 0.08,0.214 -0.438,0.336c-0.544,0.127 -1.021,0.52 -1.539,0.775c-1.213,0.596 -2.443,1.159 -3.644,1.775c-0.692,0.356 -1.334,0.809 -2.015,1.185c-1.218,0.674 -2.442,1.338 -3.677,1.979c-2.166,1.126 -4.597,1.497 -6.84,2.347c-2.646,1.003 -5.37,1.32 -8.098,1.713c-3.161,0.454 -6.338,0.92 -9.522,1.055c-2.486,0.106 -5.022,0.119 -7.481,-0.607c-1.388,-0.41 -2.78,-0.676 -4.259,-0.112c-0.692,0.265 -1.566,0.135 -2.347,0.063c-1.765,-0.162 -3.536,-0.331 -5.284,-0.621c-2.366,-0.393 -4.774,-0.705 -7.051,-1.413c-2.688,-0.836 -5.282,-1.997 -7.865,-3.137c-1.537,-0.679 -2.952,-1.63 -4.461,-2.381c-1.377,-0.686 -2.885,-1.136 -4.191,-1.926c-2.117,-1.283 -4.06,-2.852 -6.179,-4.13c-2.579,-1.556 -4.728,-3.611 -6.884,-5.649c-1.573,-1.485 -2.965,-3.166 -4.395,-4.797c-1.127,-1.283 -2.207,-2.608 -3.263,-3.95c-0.168,-0.214 -0.252,-0.745 -0.114,-0.909c1.392,-1.639 2.072,-3.825 3.921,-5.108c0.091,-0.064 0.151,-0.203 0.246,-0.228c1.608,-0.413 2.263,-1.997 3.516,-2.838c0.698,-0.469 1.466,-0.834 2.178,-1.285c1.491,-0.946 2.955,-1.94 4.46,-2.865c0.358,-0.22 0.872,-0.177 1.247,-0.38c0.634,-0.345 1.059,-1.815 0.795,-2.489c-0.353,-0.901 0.064,-2.178 0.86,-2.74c0.408,-0.289 0.747,-0.679 1.166,-0.948c0.952,-0.611 1.944,-1.157 2.898,-1.764c0.615,-0.391 1.191,-0.843 1.84,-1.307c0.798,1.597 2.05,2.856 1.98,4.7c-0.009,0.214 0.216,0.447 0.354,0.658c0.538,0.823 1.255,1.487 1.291,2.645c0.019,0.628 0.702,1.267 1.159,1.844c1.153,1.458 2.344,2.888 3.53,4.321c0.45,0.544 0.854,1.171 1.415,1.567c0.446,0.316 1.143,0.252 1.652,0.51c1.305,0.659 2.566,1.403 3.846,2.113c-0.094,0.099 -0.187,0.197 -0.281,0.296c0.284,0.398 0.48,0.972 0.865,1.164c1.814,0.899 3.644,1.792 5.537,2.497c1.789,0.666 3.669,1.082 5.5,1.635c0.875,0.264 1.712,0.664 2.597,0.874c1.362,0.322 2.668,0.128 3.943,-1.021c-0.28,1.589 0.685,1.272 1.388,1.258c1.466,-0.03 2.875,0.016 4.318,-0.723c1.133,-0.579 2.64,-0.644 3.962,-0.575c1.497,0.076 1.856,-1.131 2.69,-1.82c0.571,-0.47 0.691,-1.534 1.711,-1.39c0.277,0.04 0.515,0.353 0.705,0.687c1.605,0.379 3.144,0.151 4.342,-1.215c1.338,-1.527 0.43,-3.175 0.281,-4.339c-0.734,-0.952 -1.239,-1.609 -1.746,-2.266l-0.036,0.037Z" style="fill:#f7e9b1;fill-rule:nonzero;"/><path d="M87.796,71.149c-0.025,0.476 -0.051,0.953 -0.074,1.369c0.48,0.367 1.233,0.657 1.392,1.141c0.186,0.569 -0.143,1.307 -0.259,2.038c-0.267,-0.052 -0.505,-0.181 -0.665,-0.117c-1.279,0.518 -1.745,0.005 -1.715,-1.259c0.002,-0.089 -0.317,-0.173 -0.47,-0.281c-0.147,-0.106 -0.404,-0.275 -0.383,-0.357c0.075,-0.292 0.182,-0.663 0.403,-0.803c0.186,-0.117 0.549,0.047 0.893,0.095c0.086,-0.493 0.211,-1.198 0.335,-1.903c0.182,0.026 0.363,0.052 0.543,0.077" style="fill:#f7e9b1;fill-rule:nonzero;"/><path d="M89.163,83.341c-0.191,-0.279 -0.381,-0.557 -0.561,-0.818c-0.345,0.524 -0.558,0.847 -0.778,1.181c-0.877,-0.807 -0.877,-0.807 0.073,-1.621c-0.246,-0.196 -0.507,-0.405 -0.738,-0.589c1.013,-0.216 1.92,-0.41 2.854,-0.61c-0.285,0.81 -0.578,1.645 -0.874,2.483c-0.003,0.002 0.024,-0.026 0.024,-0.026" style="fill:#f7e9b1;fill-rule:nonzero;"/><path d="M181.303,112.291c-1.178,0.442 -2.593,-0.223 -3.54,-1.593c1.027,-0.844 1.944,-0.441 3.54,1.593" style="fill:#f7e9b1;fill-rule:nonzero;"/><path d="M179.346,113.673c0.782,-0.936 1.664,-0.723 3.035,0.734c-0.795,1.042 -1.851,0.787 -3.035,-0.734" style="fill:#f7e9b1;fill-rule:nonzero;"/><path d="M196.174,148.105c-0.121,0.088 -0.232,0.205 -0.366,0.259c-0.346,0.137 -0.703,0.246 -1.055,0.367c-0.017,-0.373 -0.082,-0.751 -0.044,-1.118c0.069,-0.649 0.199,-1.291 0.303,-1.935c0.11,0.011 0.219,0.023 0.327,0.035c0.048,0.316 0.096,0.633 0.144,0.953c1.08,0.119 1.152,0.28 0.654,1.478c0.001,-0.002 0.037,-0.039 0.037,-0.039" style="fill:#f7e9b1;fill-rule:nonzero;"/><path d="M106.779,102.931c-0.442,-0.816 -0.858,-1.296 -0.926,-1.821c-0.041,-0.307 0.475,-0.687 0.741,-1.034c0.412,0.442 0.975,0.826 1.171,1.349c0.098,0.258 -0.481,0.771 -0.986,1.506" style="fill:#f7e9b1;fill-rule:nonzero;"/><path d="M100.262,102.002c-0.046,0.141 -0.147,0.445 -0.31,0.94c-0.3,-0.504 -0.525,-0.882 -0.75,-1.261c-0.068,0.035 -0.136,0.07 -0.204,0.104c0.065,0.221 0.13,0.443 0.241,0.819c-0.352,-0.131 -0.649,-0.149 -0.777,-0.306c-0.602,-0.736 -0.805,-1.528 -0.072,-2.445c0.618,0.709 1.212,1.391 1.872,2.149" style="fill:#f7e9b1;fill-rule:nonzero;"/><path d="M173.509,121.888c0.634,-0.613 1.143,-0.676 1.681,-0.191c0.252,0.227 0.539,0.447 0.704,0.731c0.177,0.307 0.229,0.685 0.336,1.032c-0.354,-0.067 -0.77,-0.039 -1.05,-0.22c-0.576,-0.375 -1.078,-0.862 -1.671,-1.352" style="fill:#f7e9b1;fill-rule:nonzero;"/><path d="M113.182,105.34c0.543,0.552 1.504,1.011 0.629,1.95c-0.176,0.189 -0.909,0.163 -1.123,-0.039c-0.892,-0.847 -0.193,-1.4 0.494,-1.911" style="fill:#f7e9b1;fill-rule:nonzero;"/><path d="M119.517,106.718c-0.193,-0.155 -0.442,-0.258 -0.501,-0.427c-0.059,-0.169 0.008,-0.464 0.132,-0.597c0.25,-0.266 0.558,-0.492 0.878,-0.672c0.329,-0.184 0.7,-0.293 1.053,-0.434c-0.139,0.458 -0.184,0.981 -0.445,1.354c-0.236,0.336 -0.708,0.506 -1.117,0.776" style="fill:#f7e9b1;fill-rule:nonzero;"/><path d="M118.321,105.976c-1.007,-0.72 -1.3,-1.283 -0.549,-1.847c0.303,-0.228 0.815,-0.177 1.232,-0.253c-0.211,0.649 -0.422,1.298 -0.683,2.1" style="fill:#f7e9b1;fill-rule:nonzero;"/><path d="M162.951,115.864c0.382,-0.501 0.969,-0.624 1.595,-0.04c0.727,0.677 0.17,1.079 -0.442,1.527c-0.351,-0.453 -0.714,-0.92 -1.153,-1.487" style="fill:#f7e9b1;fill-rule:nonzero;"/><path d="M97.503,102.272c-0.165,0.468 -0.345,0.978 -0.523,1.485c-1.474,-0.553 -1.506,-0.656 -0.64,-1.778c0.423,0.106 0.814,0.204 1.163,0.293" style="fill:#f7e9b1;fill-rule:nonzero;"/><path d="M98.271,105.247c0.1,-0.283 0.201,-0.566 0.301,-0.849c0.293,0.112 0.612,0.181 0.872,0.345c0.392,0.247 0.742,0.561 1.11,0.846c-0.044,0.121 -0.087,0.241 -0.13,0.362c-0.729,-0.246 -1.457,-0.491 -2.187,-0.739c-0.002,-0.002 0.034,0.035 0.034,0.035" style="fill:#f7e9b1;fill-rule:nonzero;"/><path d="M112.452,104.23c0.107,0.32 0.212,0.636 0.304,0.91c-0.46,0.189 -0.918,0.377 -1.374,0.565c-0.684,-0.956 -0.612,-1.054 1.07,-1.475" style="fill:#f7e9b1;fill-rule:nonzero;"/><path d="M196.858,134.51c0.566,-0.426 0.993,-0.747 1.44,-1.083c0.723,0.977 -0.047,1.335 -0.57,1.874c-0.261,-0.237 -0.495,-0.449 -0.87,-0.791" style="fill:#f7e9b1;fill-rule:nonzero;"/><path d="M92.755,99.108c0.997,0.655 1.407,1.462 0.519,2.822c-0.209,-1.136 -0.363,-1.979 -0.519,-2.822" style="fill:#f7e9b1;fill-rule:nonzero;"/><path d="M187.444,126.645c0.765,-0.231 1.32,-0.399 1.876,-0.566c-0.002,0.215 0.083,0.501 -0.023,0.634c-0.416,0.523 -0.9,0.944 -1.853,-0.068" style="fill:#f7e9b1;fill-rule:nonzero;"/><path d="M87.937,78.69c-0.289,-0.041 -0.579,-0.082 -0.97,-0.137c0.37,-0.619 0.686,-1.149 1.068,-1.788c0.292,0.428 0.483,0.71 0.665,0.977c-0.325,0.263 -0.613,0.495 -0.901,0.729c0.045,0.072 0.092,0.146 0.138,0.219" style="fill:#f7e9b1;fill-rule:nonzero;"/><path d="M162.37,153.223c-0.484,0.162 -0.969,0.324 -1.453,0.486c-0.019,-0.264 -0.129,-0.715 -0.04,-0.759c0.405,-0.197 0.866,-0.281 1.307,-0.405c0.062,0.226 0.124,0.453 0.186,0.678" style="fill:#f7e9b1;fill-rule:nonzero;"/><path d="M187.178,125.419c-0.746,-0.596 -1.145,-0.992 -0.497,-1.471c0.201,-0.148 0.566,-0.074 0.856,-0.102c-0.106,0.464 -0.212,0.929 -0.359,1.573" style="fill:#f7e9b1;fill-rule:nonzero;"/><path d="M205.212,187.804l-1.191,1.782c-0.092,0.003 -0.183,0.009 -0.275,0.013c0,-0.421 -0.162,-0.965 0.041,-1.232c0.255,-0.337 0.809,-0.447 1.233,-0.655l0.192,0.092Z" style="fill:#f7e9b1;fill-rule:nonzero;"/><path d="M180.693,127.121c-0.547,-0.138 -1.093,-0.275 -1.64,-0.413c0.037,-0.167 0.075,-0.335 0.113,-0.502c0.709,-0.61 1.183,-0.006 1.674,0.518c-0.049,0.132 -0.098,0.265 -0.147,0.397" style="fill:#f7e9b1;fill-rule:nonzero;"/><path d="M164.621,83.958c-0.613,-0.187 -1.227,-0.375 -2.013,-0.614c1.071,-0.757 1.214,-0.727 2.103,0.237c-0.03,0.126 -0.06,0.251 -0.09,0.377" style="fill:#f7e9b1;fill-rule:nonzero;"/><path d="M87.006,79.235c0.944,0.505 1.603,0.857 2.25,1.203c-0.916,0.694 -0.996,0.663 -2.25,-1.203" style="fill:#f7e9b1;fill-rule:nonzero;"/><path d="M192.913,139.56c-0.265,-0.091 -0.701,-0.118 -0.765,-0.286c-0.17,-0.447 -0.18,-0.954 -0.254,-1.438c0.101,-0.027 0.204,-0.055 0.307,-0.082c0.31,0.5 0.621,0.999 0.931,1.499c-0.072,0.103 -0.145,0.205 -0.219,0.307" style="fill:#f7e9b1;fill-rule:nonzero;"/><path d="M193.303,151.445l0,1.448l-0.34,0.102c-0.249,-0.223 -0.498,-0.447 -0.791,-0.708c0.317,-0.342 0.566,-0.609 0.815,-0.877c0.106,0.011 0.21,0.023 0.316,0.035" style="fill:#f7e9b1;fill-rule:nonzero;"/><path d="M176.063,136.967c-0.504,-0.092 -1.006,-0.183 -1.608,-0.293c0.648,-0.938 0.745,-0.933 1.66,-0.117c-0.017,0.137 -0.035,0.273 -0.052,0.41" style="fill:#f7e9b1;fill-rule:nonzero;"/><path d="M50.275,85.206c0.302,0 0.567,-0.112 0.798,-0.34c0.23,-0.227 0.345,-0.494 0.345,-0.802c0,-0.309 -0.115,-0.576 -0.345,-0.803c-0.231,-0.227 -0.496,-0.34 -0.798,-0.34c-0.301,0 -0.562,0.113 -0.784,0.34c-0.221,0.227 -0.332,0.494 -0.332,0.803c0,0.308 0.111,0.575 0.332,0.802c0.222,0.228 0.483,0.34 0.784,0.34" style="fill-rule:nonzero;"/><path d="M222.819,90.585c0.027,-0.179 0.085,-0.359 0.174,-0.538c0.163,-0.287 0.412,-0.509 0.754,-0.665c0.339,-0.157 0.707,-0.279 1.102,-0.362c0.394,-0.085 0.794,-0.136 1.198,-0.154c0.403,-0.019 0.739,-0.03 1.007,-0.03l0.834,0c0.359,0 0.73,0.02 1.116,0.057c0.385,0.038 0.744,0.099 1.076,0.183c0.333,0.084 0.569,0.219 0.712,0.406c-0.52,0.197 -1.04,0.377 -1.559,0.539c-0.52,0.16 -1.04,0.313 -1.56,0.456c-0.807,0.251 -1.61,0.484 -2.406,0.699c-0.799,0.216 -1.601,0.431 -2.408,0.646c-0.054,-0.215 -0.081,-0.439 -0.081,-0.673c0,-0.196 0.014,-0.384 0.041,-0.564m-37.367,1.133c-0.019,0.19 -0.081,0.374 -0.189,0.555c-0.162,0.269 -0.412,0.487 -0.753,0.649c-0.341,0.162 -0.709,0.279 -1.103,0.351c-0.394,0.074 -0.789,0.117 -1.183,0.135c-0.395,0.018 -0.726,0.027 -0.995,0.027c-0.288,0 -0.631,-0.009 -1.036,-0.027c-0.403,-0.018 -0.81,-0.067 -1.224,-0.149c-0.412,-0.081 -0.789,-0.211 -1.128,-0.391c-0.342,-0.18 -0.584,-0.425 -0.726,-0.731c-0.072,-0.162 -0.117,-0.324 -0.135,-0.487c-0.019,-0.162 -0.027,-0.333 -0.027,-0.514c0,-0.179 0.008,-0.352 0.027,-0.514c0.018,-0.162 0.063,-0.325 0.135,-0.487c0.142,-0.306 0.384,-0.549 0.726,-0.73c0.339,-0.179 0.716,-0.311 1.128,-0.392c0.414,-0.081 0.821,-0.131 1.224,-0.148c0.405,-0.019 0.748,-0.029 1.036,-0.029c0.269,0 0.6,0.01 0.995,0.029c0.394,0.017 0.789,0.063 1.183,0.134c0.394,0.072 0.762,0.19 1.103,0.352c0.341,0.163 0.591,0.379 0.753,0.649c0.108,0.181 0.17,0.366 0.189,0.555c0.017,0.189 0.026,0.383 0.026,0.581c0,0.199 -0.009,0.393 -0.026,0.582m-22.496,0c-0.028,0.19 -0.094,0.374 -0.202,0.555c-0.161,0.269 -0.413,0.487 -0.753,0.649c-0.341,0.162 -0.708,0.279 -1.102,0.351c-0.395,0.074 -0.789,0.117 -1.184,0.135c-0.394,0.018 -0.726,0.027 -0.995,0.027c-0.287,0 -0.631,-0.009 -1.036,-0.027c-0.403,-0.018 -0.806,-0.067 -1.209,-0.149c-0.405,-0.081 -0.776,-0.211 -1.116,-0.391c-0.341,-0.18 -0.583,-0.425 -0.726,-0.731c-0.072,-0.162 -0.117,-0.324 -0.136,-0.487c-0.017,-0.162 -0.026,-0.333 -0.026,-0.514c0,-0.179 0.01,-0.352 0.026,-0.514c0.019,-0.162 0.064,-0.325 0.136,-0.487c0.143,-0.306 0.385,-0.549 0.726,-0.73c0.34,-0.179 0.711,-0.311 1.116,-0.392c0.403,-0.081 0.806,-0.131 1.209,-0.148c0.405,-0.019 0.749,-0.029 1.036,-0.029c0.269,0 0.601,0.01 0.995,0.029c0.395,0.017 0.789,0.063 1.184,0.134c0.394,0.072 0.761,0.19 1.102,0.352c0.34,0.163 0.592,0.379 0.753,0.649c0.108,0.181 0.174,0.366 0.202,0.555c0.026,0.189 0.04,0.383 0.04,0.581c0,0.199 -0.014,0.393 -0.04,0.582m-64.421,0c-0.018,0.19 -0.081,0.374 -0.188,0.555c-0.162,0.269 -0.413,0.487 -0.753,0.649c-0.342,0.162 -0.71,0.279 -1.103,0.351c-0.394,0.074 -0.789,0.117 -1.183,0.135c-0.396,0.018 -0.726,0.027 -0.995,0.027c-0.288,0 -0.632,-0.009 -1.036,-0.027c-0.403,-0.018 -0.811,-0.067 -1.224,-0.149c-0.273,-0.053 -0.524,-0.137 -0.765,-0.234c-0.047,-0.118 -0.117,-0.229 -0.217,-0.33c-0.188,-0.187 -0.408,-0.282 -0.659,-0.282c-0.005,0 -0.013,0.003 -0.018,0.003c-0.072,-0.089 -0.147,-0.175 -0.197,-0.279c-0.071,-0.162 -0.115,-0.324 -0.133,-0.487c-0.018,-0.162 -0.027,-0.333 -0.027,-0.514c0,-0.179 0.009,-0.352 0.027,-0.514c0.018,-0.162 0.062,-0.325 0.133,-0.487c0.144,-0.306 0.386,-0.549 0.727,-0.73c0.34,-0.179 0.717,-0.311 1.129,-0.392c0.413,-0.081 0.821,-0.131 1.224,-0.148c0.404,-0.019 0.748,-0.029 1.036,-0.029c0.269,0 0.599,0.01 0.995,0.029c0.394,0.017 0.789,0.063 1.183,0.134c0.393,0.072 0.761,0.19 1.103,0.352c0.34,0.163 0.591,0.379 0.753,0.649c0.107,0.181 0.17,0.366 0.188,0.555c0.018,0.189 0.026,0.383 0.026,0.581c0,0.199 -0.008,0.393 -0.026,0.582m-75.811,1.18c-0.089,0.125 -0.219,0.224 -0.389,0.296c-0.172,0.072 -0.35,0.124 -0.539,0.161c-0.188,0.035 -0.376,0.059 -0.564,0.067c-0.188,0.009 -0.346,0.013 -0.471,0.013l-9.978,0c-0.699,0 -1.245,-0.241 -1.639,-0.726c-0.395,-0.483 -0.692,-1.062 -0.888,-1.734c-0.197,-0.672 -0.318,-1.375 -0.363,-2.111c-0.044,-0.735 -0.068,-1.345 -0.068,-1.829c0,-0.412 0.009,-0.829 0.027,-1.25c0.019,-0.422 0.045,-0.838 0.081,-1.251l15.275,0l0,7.968c-0.019,0.007 -0.034,0.011 -0.052,0.02c-0.162,0.07 -0.306,0.197 -0.432,0.376m221.287,-0.203c-0.189,-0.187 -0.409,-0.282 -0.659,-0.282c-0.108,0 -0.243,0.038 -0.405,0.109c-0.16,0.07 -0.303,0.197 -0.428,0.376c-0.091,0.125 -0.221,0.224 -0.391,0.296c-0.171,0.072 -0.35,0.124 -0.538,0.161c-0.189,0.035 -0.377,0.059 -0.565,0.067c-0.189,0.009 -0.344,0.013 -0.47,0.013l-13.501,0c-0.376,0 -0.752,-0.013 -1.129,-0.039c-0.375,-0.027 -0.745,-0.078 -1.103,-0.149c1.004,-0.27 2,-0.541 2.986,-0.82c0.985,-0.277 1.963,-0.587 2.932,-0.927c0.177,-0.054 0.39,-0.122 0.63,-0.202c0.243,-0.08 0.475,-0.183 0.699,-0.31c0.224,-0.125 0.414,-0.268 0.566,-0.43c0.152,-0.161 0.229,-0.367 0.229,-0.618c0,-0.754 -0.202,-1.332 -0.606,-1.736c-0.403,-0.403 -0.902,-0.698 -1.493,-0.886c-0.591,-0.189 -1.223,-0.297 -1.897,-0.324c-0.67,-0.025 -1.276,-0.039 -1.814,-0.039c-0.734,0 -1.466,0.049 -2.192,0.147c-0.726,0.099 -1.385,0.296 -1.976,0.593c-0.591,0.295 -1.071,0.716 -1.44,1.263c-0.366,0.547 -0.551,1.277 -0.551,2.191c0,0.843 0.164,1.521 0.476,2.052c-0.164,0.067 -0.336,0.119 -0.516,0.154c-0.187,0.035 -0.377,0.059 -0.564,0.067c-0.189,0.009 -0.345,0.013 -0.471,0.013l-13.768,0c-0.27,0 -0.608,-0.009 -1.009,-0.027c-0.405,-0.018 -0.802,-0.067 -1.198,-0.149c-0.393,-0.081 -0.762,-0.202 -1.102,-0.364c-0.341,-0.162 -0.59,-0.387 -0.753,-0.677c-0.091,-0.162 -0.147,-0.334 -0.174,-0.514c-0.028,-0.18 -0.041,-0.369 -0.041,-0.568c0,-0.198 0.013,-0.388 0.041,-0.568c0.027,-0.18 0.083,-0.352 0.174,-0.514c0.163,-0.288 0.412,-0.513 0.753,-0.675c0.34,-0.163 0.709,-0.285 1.102,-0.366c0.396,-0.081 0.793,-0.131 1.198,-0.148c0.401,-0.019 0.739,-0.029 1.009,-0.029c0.196,0 0.509,-0.003 0.939,-0.013c0.433,-0.008 0.866,0.014 1.305,0.069c0.44,0.054 0.824,0.159 1.157,0.313c0.332,0.155 0.497,0.395 0.497,0.722c0,0.254 0.092,0.477 0.278,0.667c0.187,0.192 0.403,0.287 0.649,0.287c0.248,0 0.47,-0.095 0.665,-0.282c0.193,-0.188 0.291,-0.408 0.291,-0.659c0,-0.754 -0.202,-1.332 -0.603,-1.736c-0.404,-0.403 -0.9,-0.698 -1.49,-0.886c-0.591,-0.189 -1.221,-0.297 -1.893,-0.324c-0.669,-0.025 -1.273,-0.039 -1.811,-0.039c-0.732,0 -1.46,0.049 -2.185,0.147c-0.725,0.099 -1.382,0.296 -1.974,0.593c-0.59,0.295 -1.068,0.716 -1.434,1.263c-0.367,0.547 -0.551,1.277 -0.551,2.191c0,0.843 0.164,1.521 0.476,2.052c-0.165,0.067 -0.336,0.119 -0.515,0.154c-0.19,0.035 -0.378,0.059 -0.565,0.067c-0.189,0.009 -0.345,0.013 -0.471,0.013l-8.74,0c-0.539,0 -0.968,-0.174 -1.292,-0.525c-0.321,-0.348 -0.569,-0.778 -0.738,-1.29c-0.172,-0.511 -0.283,-1.039 -0.337,-1.587c-0.054,-0.546 -0.08,-1.026 -0.08,-1.438c0,-0.197 0.009,-0.399 0.026,-0.605c0.019,-0.206 0.027,-0.408 0.027,-0.606c0,-0.25 -0.094,-0.471 -0.282,-0.658c-0.19,-0.188 -0.408,-0.282 -0.66,-0.282c-0.214,0 -0.389,0.044 -0.523,0.133c-0.135,0.089 -0.233,0.199 -0.297,0.333c-0.062,0.133 -0.108,0.288 -0.135,0.466c-0.025,0.178 -0.04,0.347 -0.04,0.506c-0.645,-0.388 -1.376,-0.64 -2.191,-0.755c-0.815,-0.115 -1.591,-0.172 -2.326,-0.172c-0.736,0 -1.465,0.049 -2.192,0.147c-0.726,0.099 -1.385,0.296 -1.976,0.593c-0.592,0.295 -1.071,0.716 -1.44,1.263c-0.366,0.547 -0.552,1.277 -0.552,2.191c0,0.843 0.165,1.521 0.477,2.052c-0.165,0.067 -0.335,0.12 -0.516,0.154c-0.188,0.035 -0.376,0.059 -0.564,0.067c-0.189,0.009 -0.345,0.013 -0.471,0.013l-9.735,0c0.233,-0.34 0.394,-0.702 0.484,-1.089c0.09,-0.385 0.134,-0.783 0.134,-1.197c0,-0.914 -0.183,-1.644 -0.55,-2.191c-0.368,-0.547 -0.848,-0.968 -1.44,-1.263c-0.59,-0.297 -1.253,-0.494 -1.989,-0.593c-0.736,-0.098 -1.462,-0.147 -2.179,-0.147c-0.718,0 -1.465,0.048 -2.245,0.145c-0.781,0.098 -1.485,0.323 -2.111,0.677c0,-0.284 -0.081,-0.523 -0.241,-0.718c-0.163,-0.195 -0.396,-0.293 -0.702,-0.293c-0.251,0 -0.47,0.094 -0.658,0.282c-0.188,0.189 -0.281,0.409 -0.281,0.66l0,4.795c-0.018,0.008 -0.032,0.01 -0.05,0.019c-0.16,0.07 -0.304,0.197 -0.43,0.376c-0.09,0.125 -0.219,0.224 -0.39,0.296c-0.171,0.072 -0.349,0.124 -0.537,0.161c-0.189,0.035 -0.377,0.059 -0.564,0.067c-0.189,0.009 -0.348,0.013 -0.472,0.013l-10.568,0c0.141,-0.249 0.238,-0.506 0.291,-0.767c0.054,-0.258 0.079,-0.523 0.079,-0.793c0,-0.537 -0.146,-1.038 -0.437,-1.505c-0.292,-0.466 -0.655,-0.888 -1.089,-1.264c-0.435,-0.376 -0.912,-0.708 -1.433,-0.995c-0.519,-0.287 -0.994,-0.529 -1.425,-0.727c0.09,-0.142 0.184,-0.286 0.283,-0.429c0.098,-0.144 0.148,-0.314 0.148,-0.511c0,-0.251 -0.094,-0.471 -0.283,-0.659c-0.187,-0.189 -0.407,-0.283 -0.659,-0.283c-0.359,0 -0.627,0.144 -0.806,0.43l-4.545,6.912c-0.072,0.108 -0.198,0.201 -0.376,0.282c-0.181,0.082 -0.373,0.144 -0.578,0.188c-0.207,0.046 -0.408,0.076 -0.606,0.094c-0.197,0.018 -0.35,0.027 -0.457,0.027c-0.024,0 -0.044,0.012 -0.067,0.014c-0.023,-0.002 -0.043,-0.014 -0.067,-0.014l-23.961,0c-0.699,0 -1.245,-0.241 -1.64,-0.726c-0.395,-0.483 -0.691,-1.062 -0.888,-1.734c-0.198,-0.672 -0.319,-1.375 -0.364,-2.111c-0.044,-0.735 -0.067,-1.345 -0.067,-1.829c0,-0.986 0.05,-1.967 0.148,-2.945c0.099,-0.976 0.237,-1.949 0.417,-2.917c0,-0.036 0.004,-0.063 0.013,-0.081c0.01,-0.018 0.014,-0.045 0.014,-0.082c0,-0.25 -0.099,-0.473 -0.296,-0.671c-0.196,-0.197 -0.419,-0.296 -0.667,-0.296c-0.247,0 -0.443,0.072 -0.583,0.215c-0.141,0.144 -0.248,0.332 -0.318,0.565c-0.089,0.251 -0.146,0.525 -0.172,0.82c-0.027,0.296 -0.058,0.578 -0.093,0.848c-0.106,0.752 -0.189,1.501 -0.252,2.244c-0.062,0.745 -0.092,1.494 -0.092,2.246c0,0.142 0.003,0.274 0.013,0.398c0.009,0.124 0.012,0.256 0.012,0.398c-0.627,-0.354 -1.329,-0.579 -2.11,-0.677c-0.78,-0.097 -1.529,-0.145 -2.245,-0.145c-0.736,0 -1.466,0.049 -2.193,0.147c-0.725,0.099 -1.384,0.296 -1.975,0.593c-0.593,0.295 -1.073,0.716 -1.44,1.263c-0.367,0.547 -0.551,1.277 -0.551,2.191c0,0.914 0.182,1.644 0.549,2.19c-0.018,0.004 -0.034,0.012 -0.052,0.016c-0.189,0.035 -0.377,0.059 -0.564,0.067c-0.189,0.009 -0.346,0.013 -0.471,0.013l-6.884,0c-0.754,0 -1.399,-0.117 -1.937,-0.349c-0.538,-0.233 -0.981,-0.564 -1.331,-0.995c-0.349,-0.43 -0.606,-0.942 -0.767,-1.533c-0.16,-0.591 -0.242,-1.237 -0.242,-1.936c0,-0.125 0.009,-0.246 0.027,-0.364c0.018,-0.116 0.027,-0.237 0.027,-0.363c0,-0.25 -0.099,-0.469 -0.296,-0.658c-0.197,-0.189 -0.422,-0.282 -0.672,-0.282l-7.126,0c-0.251,0 -0.472,0.093 -0.659,0.282c-0.189,0.189 -0.282,0.408 -0.282,0.658c0,0.539 -0.037,1.13 -0.108,1.775c-0.073,0.647 -0.225,1.247 -0.458,1.803c-0.233,0.555 -0.56,1.021 -0.981,1.398c-0.312,0.278 -0.706,0.452 -1.18,0.525c-0.02,0.002 -0.04,0.005 -0.061,0.007c-0.135,0.018 -0.275,0.027 -0.423,0.029c-0.076,0.003 -0.145,0.003 -0.206,0.003l-8.605,0c-0.771,0 -1.425,-0.152 -1.963,-0.458c-0.538,-0.304 -0.973,-0.707 -1.305,-1.209c-0.331,-0.501 -0.574,-1.075 -0.725,-1.721c-0.153,-0.645 -0.23,-1.309 -0.23,-1.99c0,-0.286 -0.07,-0.542 -0.212,-0.766c-0.141,-0.225 -0.38,-0.336 -0.714,-0.336c-0.337,0 -0.58,0.107 -0.731,0.322c-0.15,0.215 -0.225,0.476 -0.225,0.78c0,0.538 -0.04,1.121 -0.12,1.748c-0.081,0.628 -0.233,1.21 -0.458,1.748c-0.224,0.538 -0.551,0.987 -0.981,1.345c-0.318,0.265 -0.708,0.429 -1.171,0.498c-0.025,0.003 -0.05,0.007 -0.074,0.009c-0.129,0.017 -0.264,0.025 -0.405,0.027c-0.075,0.003 -0.145,0.003 -0.206,0.003l-9.762,0c-0.268,0 -0.492,-0.061 -0.672,-0.188c-0.179,-0.125 -0.314,-0.29 -0.403,-0.497c-0.09,-0.206 -0.153,-0.431 -0.189,-0.672c-0.036,-0.243 -0.054,-0.471 -0.054,-0.686l0,-0.243c0,-0.878 -0.16,-1.59 -0.483,-2.138c-0.321,-0.546 -0.756,-0.971 -1.3,-1.276c-0.546,-0.306 -1.167,-0.512 -1.865,-0.618c-0.698,-0.108 -1.422,-0.162 -2.174,-0.162c-0.643,0 -1.318,0.045 -2.025,0.132c-0.707,0.088 -1.347,0.283 -1.919,0.584l0.002,-3.137l1.132,0c0.251,0 0.472,-0.096 0.659,-0.292c0.188,-0.194 0.283,-0.414 0.283,-0.663c0,-0.247 -0.095,-0.462 -0.283,-0.649c-0.187,-0.186 -0.408,-0.279 -0.659,-0.279l-1.13,0l0,-1.642c0,-0.25 -0.094,-0.474 -0.282,-0.671c-0.189,-0.196 -0.408,-0.295 -0.658,-0.295c-0.253,0 -0.472,0.099 -0.659,0.296c-0.189,0.198 -0.283,0.421 -0.283,0.671l0,1.641l-15.059,0c0.035,-0.217 0.084,-0.493 0.147,-0.828c0.063,-0.335 0.095,-0.602 0.095,-0.802c0,-0.254 -0.095,-0.48 -0.281,-0.679c-0.189,-0.199 -0.407,-0.299 -0.654,-0.299c-0.247,0 -0.451,0.073 -0.609,0.217c-0.16,0.146 -0.265,0.335 -0.318,0.571c-0.072,0.308 -0.125,0.612 -0.16,0.91c-0.035,0.299 -0.071,0.603 -0.106,0.91l-5.323,0c-0.25,0 -0.47,0.093 -0.658,0.279c-0.188,0.187 -0.282,0.402 -0.282,0.649c0,0.249 0.094,0.469 0.282,0.663c0.188,0.196 0.408,0.292 0.658,0.292l5.111,0c-0.036,0.413 -0.063,0.819 -0.081,1.224c-0.018,0.403 -0.026,0.811 -0.026,1.223c0,0.807 0.052,1.695 0.158,2.663c0.107,0.968 0.331,1.873 0.676,2.715c0.345,0.844 0.834,1.547 1.468,2.111c0.634,0.566 1.479,0.849 2.537,0.849l9.978,0c0.573,0 1.148,-0.073 1.721,-0.216c0.297,-0.075 0.572,-0.184 0.831,-0.324c0.046,0.09 0.099,0.178 0.178,0.257c0.187,0.187 0.406,0.283 0.659,0.283c0.25,0 0.469,-0.096 0.658,-0.285c0.188,-0.189 0.282,-0.409 0.282,-0.661l0,-3.241c0,-0.198 0.01,-0.387 0.027,-0.567c0.019,-0.18 0.072,-0.36 0.163,-0.541c0.142,-0.286 0.366,-0.512 0.671,-0.674c0.305,-0.162 0.642,-0.279 1.008,-0.351c0.369,-0.071 0.741,-0.117 1.117,-0.134c0.377,-0.019 0.699,-0.029 0.968,-0.029c0.27,0 0.588,0.01 0.954,0.029c0.368,0.017 0.731,0.063 1.09,0.134c0.359,0.072 0.695,0.185 1.009,0.338c0.313,0.152 0.541,0.365 0.685,0.634c0.09,0.162 0.148,0.333 0.175,0.513c0.026,0.18 0.04,0.361 0.04,0.54c0,0.054 -0.005,0.117 -0.014,0.189c-0.009,0.074 -0.013,0.135 -0.013,0.189c0,0.504 0.062,0.991 0.186,1.46c0.123,0.467 0.314,0.885 0.57,1.254c0.256,0.369 0.584,0.663 0.984,0.877c0.4,0.216 0.886,0.326 1.46,0.326l9.762,0c0.041,0 0.082,-0.009 0.122,-0.009c0.014,0 0.025,0.009 0.039,0.009c0.521,0 1.002,-0.066 1.444,-0.195c0.039,-0.009 0.078,-0.012 0.117,-0.021c0.573,-0.144 1.076,-0.412 1.506,-0.807c0.072,-0.054 0.148,-0.126 0.228,-0.216c0.081,-0.088 0.139,-0.178 0.175,-0.269c0.001,-0.003 0.002,-0.007 0.004,-0.01c0.329,-0.381 0.612,-0.82 0.84,-1.333c0.531,0.967 1.226,1.684 2.086,2.151c0.86,0.466 1.847,0.7 2.959,0.7l8.605,0c0.042,0 0.082,-0.009 0.123,-0.009c0.014,0 0.025,0.009 0.039,0.009c0.516,0 0.984,-0.068 1.413,-0.189c0.048,-0.011 0.097,-0.015 0.147,-0.027c0.573,-0.144 1.076,-0.412 1.506,-0.807c0.071,-0.054 0.147,-0.126 0.228,-0.216c0.081,-0.088 0.138,-0.178 0.176,-0.269c0.002,-0.005 0.004,-0.011 0.006,-0.016c0.146,-0.167 0.285,-0.341 0.409,-0.529c0.405,-0.613 0.7,-1.306 0.889,-2.08c0.187,-0.773 0.309,-1.556 0.362,-2.35l5.218,0c0.018,0.973 0.161,1.854 0.43,2.647c0.269,0.793 0.664,1.472 1.183,2.039c0.521,0.567 1.157,1.009 1.909,1.323c0.754,0.316 1.632,0.474 2.637,0.474l6.884,0c0.573,0 1.147,-0.073 1.721,-0.216c0.36,-0.09 0.688,-0.235 0.991,-0.424c0.543,0.247 1.134,0.424 1.786,0.505c0.725,0.09 1.455,0.135 2.189,0.135c0.483,0 0.999,-0.024 1.545,-0.068c0.545,-0.044 1.073,-0.135 1.584,-0.27c0.51,-0.133 0.984,-0.336 1.422,-0.604c0.438,-0.269 0.792,-0.636 1.06,-1.102c0.407,0.663 0.911,1.17 1.511,1.519c0.601,0.349 1.287,0.525 2.058,0.525l9.171,0c0.007,0 0.013,-0.002 0.02,-0.002c0.002,0 0.004,0.002 0.006,0.002l14.764,0c0.024,0 0.043,-0.013 0.066,-0.015c0.024,0.002 0.044,0.015 0.068,0.015c0.322,0 0.655,-0.024 0.995,-0.068c0.341,-0.044 0.673,-0.121 0.995,-0.229c0.323,-0.108 0.624,-0.255 0.901,-0.444c0.278,-0.188 0.515,-0.426 0.713,-0.712l3.2,-4.868c0.234,0.09 0.547,0.238 0.941,0.444c0.395,0.206 0.789,0.44 1.184,0.699c0.393,0.261 0.734,0.543 1.021,0.847c0.288,0.305 0.431,0.601 0.431,0.887c0,0.521 -0.185,0.892 -0.551,1.117c-0.368,0.224 -0.766,0.371 -1.197,0.443c-0.252,0.037 -0.457,0.14 -0.619,0.309c-0.161,0.171 -0.242,0.381 -0.242,0.633c0,0.268 0.09,0.493 0.269,0.671c0.179,0.181 0.403,0.271 0.672,0.271l13.748,0c0.574,0 1.147,-0.073 1.721,-0.216c0.256,-0.064 0.494,-0.156 0.722,-0.27l0,34.141c0,0.251 0.093,0.47 0.281,0.659c0.188,0.188 0.407,0.282 0.658,0.282c0.253,0 0.472,-0.094 0.66,-0.282c0.189,-0.189 0.283,-0.408 0.283,-0.659l0,-34.49c0.608,0.341 1.29,0.564 2.043,0.673c0.753,0.106 1.471,0.162 2.152,0.162l15.436,0c0.574,0 1.147,-0.073 1.721,-0.216c0.45,-0.112 0.855,-0.306 1.216,-0.572c0.044,0.024 0.084,0.053 0.129,0.074c0.591,0.296 1.25,0.489 1.976,0.579c0.727,0.09 1.456,0.135 2.192,0.135c0.466,0 0.963,-0.018 1.492,-0.056c0.529,-0.034 1.045,-0.12 1.546,-0.255c0.503,-0.133 0.973,-0.326 1.413,-0.579c0.439,-0.25 0.802,-0.591 1.089,-1.021c0.753,1.274 1.855,1.911 3.308,1.911l8.74,0c0.573,0 1.146,-0.073 1.72,-0.216c0.451,-0.112 0.855,-0.306 1.217,-0.572c0.043,0.023 0.084,0.053 0.129,0.074c0.591,0.296 1.251,0.489 1.977,0.579c0.725,0.09 1.456,0.135 2.192,0.135l13.768,0c0.573,0 1.146,-0.073 1.72,-0.216c0.451,-0.112 0.855,-0.306 1.217,-0.572c0.044,0.024 0.084,0.053 0.129,0.074c0.591,0.296 1.25,0.489 1.976,0.579c0.726,0.09 1.458,0.135 2.192,0.135l13.501,0c0.573,0 1.147,-0.073 1.72,-0.216c0.573,-0.144 1.077,-0.412 1.508,-0.807c0.07,-0.054 0.146,-0.126 0.228,-0.216c0.081,-0.088 0.138,-0.178 0.173,-0.269c0.072,-0.142 0.107,-0.294 0.107,-0.456c0,-0.251 -0.093,-0.47 -0.28,-0.66" style="fill-rule:nonzero;"/><path d="M27.667,110.839c-1.715,-2.091 -3.832,-3.138 -6.352,-3.138c-1.109,0 -2.136,0.202 -3.081,0.606c-0.945,0.403 -1.758,0.951 -2.439,1.644c-0.68,0.693 -1.217,1.518 -1.607,2.476c-0.391,0.959 -0.585,1.991 -0.585,3.101c0,1.134 0.194,2.18 0.585,3.138c0.39,0.957 0.933,1.789 1.626,2.495c0.693,0.706 1.506,1.261 2.439,1.663c0.932,0.404 1.94,0.606 3.024,0.606c2.369,0 4.499,-1.008 6.39,-3.026l0,8.772l-0.756,0.265c-1.135,0.403 -2.193,0.699 -3.177,0.888c-0.982,0.189 -1.953,0.283 -2.91,0.283c-1.967,0 -3.851,-0.372 -5.653,-1.115c-1.802,-0.743 -3.39,-1.789 -4.763,-3.138c-1.374,-1.348 -2.477,-2.949 -3.309,-4.801c-0.831,-1.853 -1.247,-3.876 -1.247,-6.069c0,-2.193 0.409,-4.202 1.229,-6.03c0.819,-1.827 1.914,-3.402 3.289,-4.725c1.373,-1.324 2.968,-2.357 4.782,-3.101c1.815,-0.743 3.718,-1.115 5.709,-1.115c1.134,0 2.249,0.12 3.346,0.359c1.096,0.24 2.25,0.611 3.46,1.115l0,8.847Z" style="fill-rule:nonzero;"/><path d="M39.235,115.565c0,1.134 0.214,2.181 0.643,3.138c0.428,0.958 1.008,1.79 1.739,2.496c0.73,0.705 1.581,1.254 2.552,1.644c0.97,0.391 1.997,0.586 3.081,0.586c1.083,0 2.111,-0.195 3.081,-0.586c0.97,-0.39 1.827,-0.939 2.571,-1.644c0.743,-0.706 1.329,-1.538 1.758,-2.496c0.428,-0.957 0.643,-2.004 0.643,-3.138c0,-1.134 -0.215,-2.18 -0.643,-3.138c-0.429,-0.957 -1.015,-1.789 -1.758,-2.495c-0.744,-0.706 -1.601,-1.254 -2.571,-1.645c-0.97,-0.39 -1.998,-0.585 -3.081,-0.585c-1.084,0 -2.111,0.195 -3.081,0.585c-0.971,0.391 -1.822,0.939 -2.552,1.645c-0.731,0.706 -1.311,1.538 -1.739,2.495c-0.429,0.958 -0.643,2.004 -0.643,3.138m-7.751,0c0,-2.117 0.391,-4.089 1.173,-5.916c0.78,-1.828 1.864,-3.422 3.251,-4.783c1.386,-1.361 3.043,-2.426 4.972,-3.195c1.928,-0.768 4.05,-1.153 6.37,-1.153c2.294,0 4.41,0.385 6.352,1.153c1.94,0.769 3.61,1.834 5.009,3.195c1.399,1.361 2.489,2.955 3.27,4.783c0.782,1.827 1.172,3.799 1.172,5.916c0,2.118 -0.39,4.09 -1.172,5.917c-0.781,1.828 -1.871,3.422 -3.27,4.783c-1.399,1.361 -3.069,2.426 -5.009,3.194c-1.942,0.769 -4.058,1.154 -6.352,1.154c-2.32,0 -4.442,-0.385 -6.37,-1.154c-1.929,-0.768 -3.586,-1.833 -4.972,-3.194c-1.387,-1.361 -2.471,-2.955 -3.251,-4.783c-0.782,-1.827 -1.173,-3.799 -1.173,-5.917" style="fill-rule:nonzero;"/><path d="M84.074,107.588l-8.922,0l0,4.764l8.128,0l0,6.276l-8.128,0l0,11.191l-7.411,0l0,-28.507l16.333,0l0,6.276Z" style="fill-rule:nonzero;"/><path d="M104.83,107.588l-8.922,0l0,4.764l8.128,0l0,6.276l-8.128,0l0,11.191l-7.411,0l0,-28.507l16.333,0l0,6.276Z" style="fill-rule:nonzero;"/><path d="M125.473,107.588l-8.81,0l0,4.764l8.318,0l0,6.276l-8.318,0l0,4.915l8.81,0l0,6.276l-16.22,0l0,-28.507l16.22,0l0,6.276Z" style="fill-rule:nonzero;"/><path d="M147.023,107.588l-8.81,0l0,4.764l8.318,0l0,6.276l-8.318,0l0,4.915l8.81,0l0,6.276l-16.22,0l0,-28.507l16.22,0l0,6.276Z" style="fill-rule:nonzero;"/></svg>